<?xml version="1.0" encoding="UTF-8"?>
<!DOCTYPE svg PUBLIC "-//W3C//DTD SVG 1.1//EN" "http://www.w3.org/Graphics/SVG/1.1/DTD/svg11.dtd">
<svg xmlns="http://www.w3.org/2000/svg" version="1.1" width="652px" height="600px" style="shape-rendering:geometricPrecision; text-rendering:geometricPrecision; image-rendering:optimizeQuality; fill-rule:evenodd; clip-rule:evenodd" xmlns:xlink="http://www.w3.org/1999/xlink">
<g><path style="opacity:0.997" fill="#3b1d1d" d="M 304.5,5.5 C 382.204,2.17652 454.538,20.0099 521.5,59C 567.955,87.4093 602.788,126.243 626,175.5C 657,257.147 644.667,331.48 589,398.5C 544.916,446.648 491.082,479.148 427.5,496C 374.452,509.559 320.785,512.892 266.5,506C 223.5,535 180.5,564 137.5,593C 129.531,595.849 124.531,593.183 122.5,585C 132.266,547.104 142.266,509.271 152.5,471.5C 151.99,469.912 150.99,468.745 149.5,468C 93.6667,440.167 51.8333,398.333 24,342.5C -8.4457,261.616 2.5543,187.283 57,119.5C 100.226,70.7831 153.393,37.6165 216.5,20C 245.499,12.2222 274.832,7.38884 304.5,5.5 Z"/></g>
</svg>
