<?xml version="1.0" encoding="UTF-8"?>
<!DOCTYPE svg PUBLIC "-//W3C//DTD SVG 1.1//EN" "http://www.w3.org/Graphics/SVG/1.1/DTD/svg11.dtd">
<svg xmlns="http://www.w3.org/2000/svg" version="1.1" width="512px" height="512px" style="shape-rendering:geometricPrecision; text-rendering:geometricPrecision; image-rendering:optimizeQuality; fill-rule:evenodd; clip-rule:evenodd" xmlns:xlink="http://www.w3.org/1999/xlink">
<g><path style="opacity:0.997" fill="#eeeded" d="M 234.5,31.5 C 319.587,26.8041 387.754,58.1374 439,125.5C 484.783,195.228 492.117,268.895 461,346.5C 423.571,423.895 362.071,468.061 276.5,479C 191.387,484.184 123.221,453.017 72,385.5C 26.2165,315.772 18.8832,242.105 50,164.5C 87.5858,87.0924 149.086,42.7591 234.5,31.5 Z"/></g>
<g><path style="opacity:1" fill="#f44336" d="M 245.5,175.5 C 286.277,173.787 314.777,191.453 331,228.5C 342.076,269.286 330.243,301.453 295.5,325C 259.189,342.813 226.356,337.98 197,310.5C 175.251,284.419 170.251,255.419 182,223.5C 195.088,196.717 216.254,180.717 245.5,175.5 Z"/></g>
</svg>
