<?xml version="1.0" encoding="UTF-8"?>
<svg version="1.1" xmlns="http://www.w3.org/2000/svg" width="512" height="512">
<path d="M0 0 C1.04194002 -0.00694553 2.08388003 -0.01389106 3.15739399 -0.02104706 C6.63030202 -0.0392659 10.10252301 -0.02906658 13.57545471 -0.01878357 C16.07284555 -0.02584458 18.57023211 -0.03459036 21.06761169 -0.04489136 C27.13582008 -0.0650415 33.20376107 -0.06641807 39.27197557 -0.05826581 C44.20638083 -0.05195336 49.14073148 -0.05311423 54.07513618 -0.05953789 C55.1305519 -0.06089037 55.1305519 -0.06089037 56.20728915 -0.06227018 C57.63689304 -0.06412147 59.06649692 -0.06598403 60.49610079 -0.06785773 C73.88715951 -0.08441792 87.27811272 -0.07573224 100.66916508 -0.05887216 C112.9062975 -0.04417716 125.14318434 -0.05880381 137.38028514 -0.08764232 C149.96220319 -0.11707138 162.54400803 -0.12799837 175.12595898 -0.11846012 C176.55046497 -0.11743762 177.97497098 -0.11644301 179.39947701 -0.11547661 C180.45065617 -0.11476202 180.45065617 -0.11476202 181.52307127 -0.114033 C186.4477717 -0.11187347 191.37236439 -0.12164828 196.29704094 -0.13624763 C202.93328909 -0.15564751 209.56915508 -0.14863194 216.20541 -0.12404823 C218.63778901 -0.11904399 221.07020282 -0.12251994 223.50255394 -0.13519669 C226.8293729 -0.15116062 230.15469625 -0.13614278 233.48144531 -0.11352539 C234.43836964 -0.12536112 235.39529396 -0.13719685 236.38121599 -0.14939123 C245.46132748 -0.02442976 252.79138097 3.37892693 259.23153687 9.813797 C260.07105896 10.64066513 260.91058105 11.46753326 261.77554321 12.31945801 C262.65745834 13.21306534 263.53937347 14.10667267 264.44801331 15.02735901 C265.41569745 15.98989291 266.38444888 16.9513548 267.35417175 17.91183472 C269.96256853 20.50185121 272.55515625 23.10715824 275.14447618 25.71622944 C277.86890101 28.45715094 280.60602827 31.18534002 283.34124756 33.91548157 C287.93011414 38.49983982 292.50873429 43.09423975 297.08131409 47.69483948 C302.35293519 52.99851617 307.64041334 58.28596693 312.93669683 63.56500745 C318.05149906 68.66389615 323.15487132 73.77408079 328.25319481 78.88944244 C330.41407921 81.05716355 332.57880953 83.22093019 334.74682045 85.38152313 C337.30308137 87.93007149 339.84910997 90.48843688 342.38786697 93.05441856 C343.75549083 94.43211072 345.13283116 95.80013656 346.51052856 97.16775513 C354.44234333 105.22184422 359.42024176 112.33347172 359.43843555 123.8198185 C359.4428934 125.12440565 359.44735124 126.4289928 359.45194417 127.77311289 C359.45185488 129.22436755 359.45166503 130.6756222 359.4513855 132.12687683 C359.4546849 133.66587841 359.45841063 135.20487912 359.46252698 136.74387872 C359.4725464 140.9797251 359.47626368 145.21555732 359.47891629 149.45141387 C359.4828195 154.01736411 359.49239782 158.58330313 359.50112915 163.14924622 C359.52089289 174.1792371 359.53095958 185.20922891 359.53985694 196.23923308 C359.54423992 201.43310866 359.54960669 206.62698322 359.55484581 211.820858 C359.57185786 229.08580374 359.5863522 246.35074884 359.59359455 263.61570168 C359.59550445 268.09618251 359.59742478 272.57666335 359.59938049 277.05714417 C359.59986423 278.17074898 359.60034797 279.28435379 359.60084637 280.43170421 C359.60914731 298.47280134 359.63448542 316.51383218 359.66696117 334.55490036 C359.70002928 353.07597987 359.71804308 371.59702568 359.72123879 390.11813486 C359.7234041 400.51758139 359.73215581 410.91693126 359.75769997 421.31634903 C359.77940352 430.17266642 359.78745905 439.02886366 359.77773318 447.88520463 C359.77318753 452.40290968 359.77509019 456.9203668 359.79449463 461.43803787 C359.81212007 465.57732227 359.81113372 469.71617773 359.79559734 473.85546665 C359.79322032 475.34946381 359.79754974 476.84349062 359.80942599 478.33744247 C359.88603529 488.61450844 359.18143012 497.45789235 352.05421448 505.3896637 C344.38899016 512.94104804 336.20372429 513.09293538 326.0327301 513.02259827 C324.57959113 513.02721123 323.12645682 513.0335668 321.67333221 513.04150724 C317.69337011 513.05816966 313.71379279 513.04996843 309.7338295 513.03756237 C305.43654555 513.02850149 301.13932715 513.04248675 296.84205627 513.05348206 C288.42890361 513.07126079 280.01589376 513.06743017 271.60273552 513.05583149 C264.7646912 513.04679491 257.92668688 513.04557415 251.08863831 513.04992676 C249.62833812 513.05084616 249.62833812 513.05084616 248.13853693 513.05178413 C246.16077104 513.05306304 244.18300516 513.05435989 242.2052393 513.05567449 C223.66333085 513.0670784 205.12150153 513.05396955 186.57960606 513.03247303 C170.67266507 513.01460222 154.76584085 513.01770638 138.85890198 513.03614807 C120.38296842 513.05755812 101.9071042 513.06597978 83.43115997 513.05369902 C81.46070354 513.05242483 79.4902471 513.05116735 77.51979065 513.04992676 C76.55030943 513.04930966 75.58082822 513.04869255 74.58196878 513.04805675 C67.75279481 513.04460426 60.92366484 513.05043004 54.09449768 513.05984497 C45.77106021 513.07106781 37.44777361 513.0680189 29.12435341 513.04672199 C24.87826357 513.03621542 20.63242521 513.032083 16.38633728 513.0453186 C12.49770657 513.05725657 8.60955994 513.05065717 4.72097301 513.0294084 C3.31596955 513.02494824 1.91092501 513.02719548 0.50594807 513.03691155 C-9.00750967 513.09764368 -16.36047794 512.36974394 -23.44578552 505.3896637 C-32.01919485 495.77290586 -31.26647997 484.67095797 -31.20372009 472.53639221 C-31.20833235 470.59622766 -31.21468744 468.6560666 -31.22262907 466.71591282 C-31.23930083 461.39897718 -31.2310857 456.08232935 -31.2186842 450.76539278 C-31.20962728 445.02569934 -31.22360664 439.2860551 -31.23460388 433.54637146 C-31.25238678 422.30804954 -31.2485501 411.0698345 -31.23695332 399.8315084 C-31.22791839 390.69757444 -31.22669526 381.56367042 -31.23104858 372.42973328 C-31.23166152 371.12955562 -31.23227445 369.82937797 -31.23290595 368.48980099 C-31.23418486 365.84848363 -31.23548171 363.20716629 -31.23679632 360.56584895 C-31.24787635 336.50635681 -31.23638753 312.44692085 -31.21542593 288.38743784 C-31.19644411 266.43339598 -31.19814265 244.47944693 -31.2172699 222.52540588 C-31.23869778 197.84836691 -31.24710282 173.17138137 -31.23482084 148.49433422 C-31.23354665 145.86275419 -31.23228917 143.23117416 -31.23104858 140.59959412 C-31.23043148 139.30481929 -31.22981438 138.01004446 -31.22917858 136.67603403 C-31.22572543 127.55347514 -31.23155327 118.43094918 -31.2409668 109.30839539 C-31.25218719 98.1904695 -31.24914576 87.07265657 -31.22784382 75.95474362 C-31.21733408 70.28262569 -31.21321049 64.61069608 -31.22644043 58.93857956 C-31.23837142 53.74480317 -31.23178977 48.55138942 -31.21053022 43.35764587 C-31.20606721 41.48025936 -31.20832365 39.60284213 -31.21803337 37.72547543 C-31.31895841 16.58797054 -31.31895841 16.58797054 -23.50828552 7.6396637 C-17.04407094 1.12635382 -8.75374876 -0.07520954 0 0 Z " fill="#DFDFDF" transform="translate(91.69578552246094,-0.5146636962890625)"/>
<path d="M0 0 C0.8713476 -0.00199105 1.74269519 -0.0039821 2.64044726 -0.00603348 C3.6034677 -0.00312064 4.56648814 -0.0002078 5.55869102 0.00279331 C6.57720441 0.00193889 7.5957178 0.00108446 8.64509523 0.00020415 C12.07996492 -0.00145142 15.51478647 0.00407199 18.94965172 0.00952244 C21.40311749 0.00980432 23.85658334 0.00964656 26.31004906 0.00907993 C31.60351373 0.00885174 36.89696324 0.01169996 42.19042397 0.01731777 C49.84393605 0.02543496 57.49744218 0.02804822 65.15095811 0.02930576 C77.56742055 0.03149594 89.98387643 0.03815509 102.40033531 0.04760838 C114.46381154 0.05678339 126.52728599 0.06386379 138.590765 0.06811619 C139.70561968 0.06851027 139.70561968 0.06851027 140.84299667 0.06891232 C144.57148913 0.07021733 148.29998161 0.07148104 152.02847409 0.07272422 C182.97404719 0.08309576 213.91961213 0.10078732 244.86517906 0.12304783 C244.87397842 1.8098138 244.87397842 1.8098138 244.88295555 3.53065586 C244.94022052 14.13895561 245.01300207 24.7470511 245.10089397 35.35514259 C245.14558141 40.80860568 245.18484129 46.26199434 245.21161461 51.71557713 C245.23766357 56.98065436 245.27807765 62.24544494 245.32836533 67.51034451 C245.34502319 69.51689616 245.35654418 71.52349738 245.36279297 73.53010845 C245.37244568 76.34532797 245.40051929 79.1598159 245.43280602 81.97485447 C245.43065338 83.21347988 245.43065338 83.21347988 245.42845726 84.47712803 C245.54624078 91.76040657 247.50166175 97.90067571 252.86517906 103.12304783 C258.89813889 106.60458091 264.26130613 107.71176059 271.14862633 107.66894627 C272.02776192 107.67928394 272.90689751 107.68962162 273.81267357 107.70027256 C276.68583549 107.72950408 279.55828695 107.73119555 282.43158531 107.73242283 C284.43655792 107.74741776 286.44151824 107.76414765 288.44646263 107.78253269 C293.69889482 107.82607085 298.9511604 107.84617528 304.20374107 107.86126804 C309.57340859 107.880888 314.94289747 107.92285248 320.31244469 107.96289158 C330.82996753 108.03804705 341.3474501 108.08842723 351.86517906 108.12304783 C351.91702967 109.72532556 351.95406222 111.32808755 351.98480797 112.93090916 C352.00701408 113.82336842 352.0292202 114.71582767 352.05209923 115.63533115 C351.76096101 119.51008372 349.9810857 121.16837702 347.24017906 123.81054783 C346.22520489 124.825522 345.21091477 125.84118054 344.19721031 126.85742283 C343.65532066 127.38400486 343.11343102 127.91058689 342.55512047 128.45312595 C339.57887604 131.39411294 336.76712061 134.48834587 333.92767906 137.56054783 C332.73173757 138.84112468 331.53512525 140.12107538 330.33783531 141.40039158 C327.16674491 144.79555019 324.01258483 148.20593967 320.86517906 151.62304783 C315.95862275 156.94948661 311.0212374 162.24647886 306.07611656 167.53711033 C302.32488328 171.55274772 298.58835953 175.58139645 294.86517906 179.62304783 C290.34004652 184.53435982 285.79581033 189.42750979 281.24017906 194.31054783 C280.63560875 194.95894627 280.03103844 195.6073447 279.40814781 196.27539158 C278.8448275 196.87867283 278.28150719 197.48195408 277.70111656 198.10351658 C277.20144371 198.63871922 276.70177086 199.17392185 276.18695641 199.72534275 C272.98689855 203.10922366 272.98689855 203.10922366 270.61002922 203.37917423 C269.66318008 203.38210735 268.71633095 203.38504047 267.74078941 203.38806248 C266.11286209 203.40047222 266.11286209 203.40047222 264.45204735 203.41313267 C263.25613472 203.41215076 262.06022209 203.41116886 260.82806969 203.4101572 C258.901233 203.42064573 256.97439631 203.43113479 255.04755974 203.44164371 C252.97322436 203.45102631 250.89892925 203.45548647 248.82457542 203.45857334 C244.50555644 203.46527447 240.18669469 203.48701355 235.86774254 203.51110935 C225.91998924 203.56429497 215.97218747 203.59763469 206.02435112 203.63086796 C196.90860473 203.66152466 187.79292558 203.69632151 178.6772666 203.74717855 C174.38095182 203.77057414 170.0847462 203.78427978 165.78837395 203.79067326 C163.76094621 203.79517278 161.7335995 203.80417487 159.70619774 203.81523228 C157.23026505 203.82870975 154.75427932 203.83499588 152.27831078 203.83296299 C150.65038345 203.84537273 150.65038345 203.84537273 148.98956871 203.85803318 C148.04271957 203.8609663 147.09587044 203.86389942 146.1203289 203.86692142 C143.66426635 203.90876456 143.66426635 203.90876456 141.86517906 206.12304783 C141.4485124 209.12304783 141.4485124 209.12304783 141.86517906 212.12304783 C145.07803139 214.26494938 145.93168914 214.3775333 149.62975121 214.40152073 C150.60991707 214.41268421 151.59008293 214.42384769 152.59995079 214.43534946 C154.21080055 214.43858974 154.21080055 214.43858974 155.85419273 214.44189548 C156.986045 214.45194111 158.11789726 214.46198673 159.28404808 214.47233677 C163.03374271 214.5032839 166.78336558 214.52023608 170.53314781 214.53711033 C173.12961512 214.55581268 175.7260763 214.57538538 178.32253075 214.59579563 C184.46353342 214.64196206 190.60453223 214.67933486 196.74561721 214.7124685 C203.73714676 214.75067979 210.72858305 214.80009252 217.720034 214.85045266 C232.10167871 214.95379383 246.48338654 215.0430471 260.86517906 215.12304783 C259.91589243 216.40561395 258.96426743 217.68644955 258.01166344 218.96655369 C257.4819796 219.68000446 256.95229576 220.39345524 256.4065609 221.12852573 C254.56179966 223.51561566 252.5461082 225.60339265 250.36517906 227.68554783 C247.29870155 230.58630583 247.29870155 230.58630583 244.65265751 233.85580063 C242.67996573 236.57804911 241.09392515 238.73607775 237.81173706 239.7697401 C235.35405108 240.00912968 232.97978422 240.03208032 230.51093102 239.97778416 C229.58828453 239.98534733 228.66563805 239.9929105 227.71503258 240.00070286 C224.67695371 240.01786037 221.64139331 239.98632382 218.60346031 239.95507908 C216.48928978 239.95938692 214.37512365 239.9670595 212.26097679 239.977952 C206.70355781 239.99886227 201.14702153 239.9798214 195.58966637 239.95068455 C186.68430463 239.91117738 177.77885963 239.93419056 168.87347031 239.95368099 C165.76064158 239.95506477 162.64819732 239.94065437 159.53542137 239.92353916 C157.63402914 239.92053291 155.7326365 239.91776803 153.83124352 239.91528416 C152.96313545 239.90644703 152.09502739 239.8976099 151.20061302 239.88850498 C146.23792051 239.88520744 146.23792051 239.88520744 141.86517906 242.12304783 C141.36517906 245.12304783 141.36517906 245.12304783 141.86517906 248.12304783 C145.59303969 250.60828825 148.50703235 250.429708 152.82489586 250.44189548 C153.63488029 250.45194111 154.44486473 250.46198673 155.27939415 250.47233677 C157.95772146 250.5032372 160.6359485 250.52022287 163.31439781 250.53711033 C165.17099944 250.55581647 167.02759253 250.57538946 168.88417625 250.59579563 C173.77167285 250.6471814 178.65919703 250.6867726 183.54681969 250.72393894 C188.53386863 250.76393822 193.52080219 250.81504913 198.50775719 250.86523533 C208.2934835 250.96207091 218.07927487 251.04645125 227.86517906 251.12304783 C226.92434052 252.22486303 225.98289597 253.32616078 225.04120445 254.42724705 C224.51700417 255.04058903 223.99280388 255.65393101 223.45271873 256.28585911 C221.11925421 258.98627333 218.71879859 261.62168109 216.30267906 264.24804783 C215.84699547 264.74691502 215.39131187 265.2457822 214.92181969 265.75976658 C213.57902649 267.22289543 212.22224158 268.67314406 210.86517906 270.12304783 C210.26794029 270.99405125 209.67070152 271.86505466 209.05536461 272.76245213 C203.88193066 276.59056362 198.40355317 275.80898952 192.13861656 275.75976658 C190.78529787 275.76781108 189.43199184 275.77833173 188.07871056 275.79121494 C184.52545459 275.8197114 180.97278263 275.82034727 177.41943932 275.81335545 C171.72558627 275.80601986 166.0319206 275.83735837 160.3382206 275.87580395 C158.35124426 275.88465465 156.36421956 275.87854264 154.37723351 275.87223911 C153.17233269 275.87597034 151.96743187 275.87970158 150.72601891 275.88354588 C149.66410332 275.88178852 148.60218773 275.88003117 147.50809288 275.87822056 C144.63489113 275.93309383 144.63489113 275.93309383 141.86517906 278.12304783 C141.4485124 281.12304783 141.4485124 281.12304783 141.86517906 284.12304783 C144.37140105 286.62926982 145.21539058 286.38963393 148.68207359 286.44189548 C149.68296013 286.46176517 150.68384666 286.48163486 151.7150631 286.50210667 C153.34011269 286.51943348 153.34011269 286.51943348 154.99799156 286.53711033 C156.10496391 286.55647648 157.21193626 286.57584263 158.35245323 286.59579563 C161.89828275 286.65571537 165.44414451 286.70202656 168.99017906 286.74804783 C171.38993303 286.78621618 173.78967314 286.82526722 176.18939781 286.86523533 C182.08120208 286.96142699 187.97308942 287.04643797 193.86517906 287.12304783 C191.63479925 290.97657735 189.33272894 293.84290284 186.11517906 296.93554783 C182.43019746 300.48726752 179.03227083 304.18116383 175.68597984 308.04614353 C172.76499095 311.37798216 169.72084572 314.59061638 166.67767906 317.81054783 C165.35175614 319.21902358 164.02624025 320.62788261 162.70111656 322.03711033 C162.0511068 322.72837009 161.40109703 323.41962986 160.73139 324.13183689 C158.07270249 326.96860499 155.43536798 329.8246658 152.80267906 332.68554783 C148.50937139 337.34947993 144.19404493 341.99209945 139.86517906 346.62304783 C135.51639429 351.27563637 131.18052269 355.93942689 126.86517906 360.62304783 C125.39800408 362.21281828 123.9304935 363.80227815 122.46283531 365.39160252 C121.32396376 366.62584412 120.18604598 367.86096608 119.04877281 369.09668064 C117.15745973 371.15013401 115.26170273 373.19940715 113.36517906 375.24804783 C112.77736656 375.88806736 112.18955406 376.52808689 111.58392906 377.18750095 C111.02705406 377.78755955 110.47017906 378.38761814 109.89642906 379.00586033 C109.16263023 379.80080906 109.16263023 379.80080906 108.41400719 380.61181736 C106.68092472 382.30282942 104.81117097 383.6858958 102.86517906 385.12304783 C102.85709221 384.51361332 102.84900536 383.90417881 102.84067345 383.27627659 C102.75481062 376.94991799 102.65531579 370.62387937 102.54779625 364.29785252 C102.5094438 361.93495132 102.47460214 359.57199049 102.44330406 357.20898533 C102.3977894 353.81814303 102.33977287 350.42771359 102.27924156 347.03711033 C102.26769035 345.97561771 102.25613914 344.9141251 102.2442379 343.82046604 C102.22436821 342.83960026 102.20449852 341.85873447 102.18402672 340.84814548 C102.17070305 339.98210697 102.15737938 339.11606846 102.14365196 338.22378635 C102.05297193 335.90547141 102.05297193 335.90547141 99.86517906 334.12304783 C95.36383575 334.43902199 92.11358717 335.81203053 88.21674156 338.00976658 C86.60158653 338.91311741 86.60158653 338.91311741 84.95380211 339.83471775 C83.8108065 340.48674168 82.6678109 341.1387656 81.49017906 341.81054783 C80.29493741 342.48469059 79.09937624 343.15826713 77.90350914 343.83129978 C74.2149855 345.91278071 70.53833844 348.01459446 66.86517906 350.12304783 C66.28020653 350.45868748 65.69523399 350.79432713 65.09253502 351.14013767 C53.91928566 357.5305645 53.91928566 357.5305645 42.86517906 364.12304783 C41.79098717 364.5646323 40.71679527 365.00621677 39.61005211 365.46118259 C35.68183071 369.2706105 36.11959569 372.40540592 36.03293419 377.72418308 C36.04202812 379.0159647 36.05112206 380.30774632 36.06049156 381.63867283 C36.0492385 382.97819499 36.03535654 384.31769744 36.01895714 385.65716648 C35.98292685 389.17549553 35.9825441 392.69295554 35.98962975 396.21142673 C35.99054283 399.80452097 35.95768192 403.39728978 35.92767906 406.99023533 C35.87382523 414.03455287 35.85763386 421.07850681 35.86517906 428.12304783 C35.12332359 428.09839451 34.38146812 428.07374119 33.61713219 428.0483408 C32.14663414 428.01957859 32.14663414 428.01957859 30.64642906 427.99023533 C29.67769859 427.96558201 28.70896812 427.94092869 27.71088219 427.9155283 C23.19745331 428.24466475 20.14383423 430.09350616 16.86517906 433.12304783 C13.21940539 438.02205621 13.16508781 443.23460911 13.86517906 449.12304783 C15.53276701 453.86250831 17.59357462 456.487377 21.86517906 459.12304783 C25.1566429 460.29929181 28.48030725 461.25546903 31.86517906 462.12304783 C29.86914123 464.4598726 27.86926237 466.79313361 25.86517906 469.12304783 C25.3585775 469.71343845 24.85197594 470.30382908 24.33002281 470.91211033 C23.22065794 472.19319508 22.09847908 473.46324649 20.96674156 474.72461033 C19.30136247 476.62524744 17.71704034 478.55035406 16.13861656 480.52148533 C8.70761199 489.52724809 8.70761199 489.52724809 3.85736656 491.09570408 C-1.78435113 491.27248815 -5.93152634 490.01878428 -10.13482094 486.12304783 C-14.38799914 480.49046047 -15.28280805 476.40031209 -15.2662487 469.50858688 C-15.26830134 468.72182917 -15.27035397 467.93507145 -15.27246881 467.12447259 C-15.2781608 464.46611986 -15.27667885 461.80781858 -15.27526283 459.14946079 C-15.2778452 457.233115 -15.280858 455.31676975 -15.28426623 453.40042526 C-15.29235445 448.11705247 -15.29412682 442.83369326 -15.2948637 437.55031502 C-15.29671108 431.85898956 -15.30425678 426.1676712 -15.31099892 420.47634983 C-15.32459539 408.02404336 -15.33060892 395.5717401 -15.33500957 383.11942744 C-15.33776961 375.34875562 -15.34200651 367.57808504 -15.34651375 359.80741405 C-15.35870782 338.30564744 -15.36904246 316.80388245 -15.37238884 295.30211258 C-15.37261047 293.91138076 -15.37283226 292.52064895 -15.37305419 291.12991713 C-15.37327483 289.73580223 -15.37349532 288.34168732 -15.37371564 286.94757241 C-15.3741582 284.15067685 -15.37460531 281.35378128 -15.37505531 278.55688572 C-15.3751647 277.86341708 -15.37527409 277.16994844 -15.3753868 276.4554656 C-15.37901833 253.96409719 -15.39494185 231.47276099 -15.41824568 208.98140491 C-15.44283127 185.20956443 -15.45655435 161.43774609 -15.45775676 137.66589195 C-15.45867469 124.70452221 -15.4644566 111.74319465 -15.48257637 98.78183651 C-15.49794859 87.74673002 -15.50311485 76.71167874 -15.49483827 65.67656358 C-15.49092163 60.0434916 -15.49191071 54.41053091 -15.50589561 48.7774725 C-15.51857374 43.62378509 -15.51749084 38.47029328 -15.5053049 33.31660638 C-15.50333731 31.44917046 -15.50647497 29.58172098 -15.51514927 27.71430417 C-15.52617457 25.18097402 -15.51880159 22.6483424 -15.50675774 20.1150322 C-15.51435293 19.38563119 -15.52194812 18.65623018 -15.52977347 17.90472612 C-15.47478985 12.56787437 -14.28730919 8.42889402 -10.59966469 4.47851658 C-4.74002818 -0.00238192 -4.74002818 -0.00238192 0 0 Z " fill="#FEFEFE" transform="translate(87.13482093811035,10.876952171325684)"/>
<path d="M0 0 C1.04194002 -0.00694553 2.08388003 -0.01389106 3.15739399 -0.02104706 C6.63030202 -0.0392659 10.10252301 -0.02906658 13.57545471 -0.01878357 C16.07284555 -0.02584458 18.57023211 -0.03459036 21.06761169 -0.04489136 C27.13582008 -0.0650415 33.20376107 -0.06641807 39.27197557 -0.05826581 C44.20638083 -0.05195336 49.14073148 -0.05311423 54.07513618 -0.05953789 C55.1305519 -0.06089037 55.1305519 -0.06089037 56.20728915 -0.06227018 C57.63689304 -0.06412147 59.06649692 -0.06598403 60.49610079 -0.06785773 C73.88715951 -0.08441792 87.27811272 -0.07573224 100.66916508 -0.05887216 C112.9062975 -0.04417716 125.14318434 -0.05880381 137.38028514 -0.08764232 C149.96220319 -0.11707138 162.54400803 -0.12799837 175.12595898 -0.11846012 C176.55046497 -0.11743762 177.97497098 -0.11644301 179.39947701 -0.11547661 C180.45065617 -0.11476202 180.45065617 -0.11476202 181.52307127 -0.114033 C186.4477717 -0.11187347 191.37236439 -0.12164828 196.29704094 -0.13624763 C202.93328909 -0.15564751 209.56915508 -0.14863194 216.20541 -0.12404823 C218.63778901 -0.11904399 221.07020282 -0.12251994 223.50255394 -0.13519669 C226.8293729 -0.15116062 230.15469625 -0.13614278 233.48144531 -0.11352539 C234.43836964 -0.12536112 235.39529396 -0.13719685 236.38121599 -0.14939123 C245.46132748 -0.02442976 252.79138097 3.37892693 259.23153687 9.813797 C260.07105896 10.64066513 260.91058105 11.46753326 261.77554321 12.31945801 C262.65745834 13.21306534 263.53937347 14.10667267 264.44801331 15.02735901 C265.41569745 15.98989291 266.38444888 16.9513548 267.35417175 17.91183472 C269.96256853 20.50185121 272.55515625 23.10715824 275.14447618 25.71622944 C277.86890101 28.45715094 280.60602827 31.18534002 283.34124756 33.91548157 C287.93011414 38.49983982 292.50873429 43.09423975 297.08131409 47.69483948 C302.35293519 52.99851617 307.64041334 58.28596693 312.93669683 63.56500745 C318.05149906 68.66389615 323.15487132 73.77408079 328.25319481 78.88944244 C330.41407921 81.05716355 332.57880953 83.22093019 334.74682045 85.38152313 C337.30308137 87.93007149 339.84910997 90.48843688 342.38786697 93.05441856 C343.75549083 94.43211072 345.13283116 95.80013656 346.51052856 97.16775513 C354.44234333 105.22184422 359.42024176 112.33347172 359.43843555 123.8198185 C359.4428934 125.12440565 359.44735124 126.4289928 359.45194417 127.77311289 C359.45185488 129.22436755 359.45166503 130.6756222 359.4513855 132.12687683 C359.4546849 133.66587841 359.45841063 135.20487912 359.46252698 136.74387872 C359.4725464 140.9797251 359.47626368 145.21555732 359.47891629 149.45141387 C359.4828195 154.01736411 359.49239782 158.58330313 359.50112915 163.14924622 C359.52089289 174.1792371 359.53095958 185.20922891 359.53985694 196.23923308 C359.54423992 201.43310866 359.54960669 206.62698322 359.55484581 211.820858 C359.57185786 229.08580374 359.5863522 246.35074884 359.59359455 263.61570168 C359.59550445 268.09618251 359.59742478 272.57666335 359.59938049 277.05714417 C359.59986423 278.17074898 359.60034797 279.28435379 359.60084637 280.43170421 C359.60914731 298.47280134 359.63448542 316.51383218 359.66696117 334.55490036 C359.70002928 353.07597987 359.71804308 371.59702568 359.72123879 390.11813486 C359.7234041 400.51758139 359.73215581 410.91693126 359.75769997 421.31634903 C359.77940352 430.17266642 359.78745905 439.02886366 359.77773318 447.88520463 C359.77318753 452.40290968 359.77509019 456.9203668 359.79449463 461.43803787 C359.81212007 465.57732227 359.81113372 469.71617773 359.79559734 473.85546665 C359.79322032 475.34946381 359.79754974 476.84349062 359.80942599 478.33744247 C359.88603529 488.61450844 359.18143012 497.45789235 352.05421448 505.3896637 C344.38899016 512.94104804 336.20372429 513.09293538 326.0327301 513.02259827 C324.57959113 513.02721123 323.12645682 513.0335668 321.67333221 513.04150724 C317.69337011 513.05816966 313.71379279 513.04996843 309.7338295 513.03756237 C305.43654555 513.02850149 301.13932715 513.04248675 296.84205627 513.05348206 C288.42890361 513.07126079 280.01589376 513.06743017 271.60273552 513.05583149 C264.7646912 513.04679491 257.92668688 513.04557415 251.08863831 513.04992676 C249.62833812 513.05084616 249.62833812 513.05084616 248.13853693 513.05178413 C246.16077104 513.05306304 244.18300516 513.05435989 242.2052393 513.05567449 C223.66333085 513.0670784 205.12150153 513.05396955 186.57960606 513.03247303 C170.67266507 513.01460222 154.76584085 513.01770638 138.85890198 513.03614807 C120.38296842 513.05755812 101.9071042 513.06597978 83.43115997 513.05369902 C81.46070354 513.05242483 79.4902471 513.05116735 77.51979065 513.04992676 C76.55030943 513.04930966 75.58082822 513.04869255 74.58196878 513.04805675 C67.75279481 513.04460426 60.92366484 513.05043004 54.09449768 513.05984497 C45.77106021 513.07106781 37.44777361 513.0680189 29.12435341 513.04672199 C24.87826357 513.03621542 20.63242521 513.032083 16.38633728 513.0453186 C12.49770657 513.05725657 8.60955994 513.05065717 4.72097301 513.0294084 C3.31596955 513.02494824 1.91092501 513.02719548 0.50594807 513.03691155 C-9.00750967 513.09764368 -16.36047794 512.36974394 -23.44578552 505.3896637 C-32.01919485 495.77290586 -31.26647997 484.67095797 -31.20372009 472.53639221 C-31.20833235 470.59622766 -31.21468744 468.6560666 -31.22262907 466.71591282 C-31.23930083 461.39897718 -31.2310857 456.08232935 -31.2186842 450.76539278 C-31.20962728 445.02569934 -31.22360664 439.2860551 -31.23460388 433.54637146 C-31.25238678 422.30804954 -31.2485501 411.0698345 -31.23695332 399.8315084 C-31.22791839 390.69757444 -31.22669526 381.56367042 -31.23104858 372.42973328 C-31.23166152 371.12955562 -31.23227445 369.82937797 -31.23290595 368.48980099 C-31.23418486 365.84848363 -31.23548171 363.20716629 -31.23679632 360.56584895 C-31.24787635 336.50635681 -31.23638753 312.44692085 -31.21542593 288.38743784 C-31.19644411 266.43339598 -31.19814265 244.47944693 -31.2172699 222.52540588 C-31.23869778 197.84836691 -31.24710282 173.17138137 -31.23482084 148.49433422 C-31.23354665 145.86275419 -31.23228917 143.23117416 -31.23104858 140.59959412 C-31.23043148 139.30481929 -31.22981438 138.01004446 -31.22917858 136.67603403 C-31.22572543 127.55347514 -31.23155327 118.43094918 -31.2409668 109.30839539 C-31.25218719 98.1904695 -31.24914576 87.07265657 -31.22784382 75.95474362 C-31.21733408 70.28262569 -31.21321049 64.61069608 -31.22644043 58.93857956 C-31.23837142 53.74480317 -31.23178977 48.55138942 -31.21053022 43.35764587 C-31.20606721 41.48025936 -31.20832365 39.60284213 -31.21803337 37.72547543 C-31.31895841 16.58797054 -31.31895841 16.58797054 -23.50828552 7.6396637 C-17.04407094 1.12635382 -8.75374876 -0.07520954 0 0 Z M-17.00828552 18.0771637 C-19.95270629 22.33021591 -19.84004359 26.1453567 -19.8300066 31.12353802 C-19.83235883 31.90969654 -19.83471106 32.69585507 -19.83713457 33.50583658 C-19.84383575 36.16216889 -19.84336601 38.81845241 -19.84295654 41.47479248 C-19.84625447 43.38971304 -19.84997988 45.30463289 -19.85409802 47.21955186 C-19.8641342 52.49906177 -19.86783741 57.77856031 -19.87048733 63.05807841 C-19.87438557 68.74535331 -19.88396421 74.43261917 -19.8927002 80.11988831 C-19.91247783 93.86295453 -19.9225323 107.60602151 -19.93142799 121.34909841 C-19.93580861 127.81687291 -19.94117599 134.28464658 -19.94641685 140.75242043 C-19.96343016 162.24560374 -19.97795012 183.73878574 -19.9851656 205.2319746 C-19.98564035 206.62219821 -19.98611624 208.01242182 -19.98659326 209.40264543 C-19.98682963 210.09207651 -19.98706601 210.78150758 -19.98730955 211.49183051 C-19.98851076 214.98487452 -19.9897262 218.47791852 -19.99095154 221.97096252 C-19.99119169 222.66416965 -19.99143184 223.35737677 -19.99167927 224.07159016 C-19.99957288 246.54898943 -20.02300572 269.02633594 -20.05550748 291.50371217 C-20.08980118 315.26369269 -20.10951516 339.02363589 -20.11280984 362.78364259 C-20.11497727 375.73726688 -20.12376005 388.69081364 -20.14927101 401.6444149 C-20.17094299 412.67435083 -20.17904568 423.70419039 -20.16930423 434.73414519 C-20.16474943 440.36344817 -20.16671432 445.99255219 -20.18606567 451.62182808 C-20.20362572 456.77443513 -20.20275787 461.926697 -20.18716838 467.07930735 C-20.18478141 468.9440894 -20.18917197 470.80889491 -20.20099703 472.67364099 C-20.21607608 475.20837515 -20.20647168 477.74187987 -20.19077015 480.27658367 C-20.20099236 481.00073065 -20.21121456 481.72487763 -20.22174653 482.47096846 C-20.14902792 487.8489146 -18.65002051 492.0103844 -15.69578552 496.5146637 C-11.37387474 500.52786657 -8.89238497 501.63914995 -3.07845688 501.64609146 C-1.8764035 501.64993261 -0.67435012 501.65377375 0.56412911 501.65773129 C1.91004711 501.65695096 3.25596506 501.65607216 4.60188293 501.65510559 C6.02238984 501.6576878 7.44289601 501.66070055 8.86340117 501.66410899 C12.78084539 501.67219937 16.69827131 501.67396969 20.61572289 501.67470646 C24.83534251 501.6765535 29.05495255 501.6840991 33.27456665 501.69084167 C42.50802637 501.70444033 51.74148176 501.71045219 60.97494984 501.71485233 C66.73767756 501.71761236 72.5004036 501.72184929 78.26313019 501.72635651 C94.21036804 501.73855154 110.15760454 501.74885015 126.10484695 501.7522316 C127.63671636 501.75256095 127.63671636 501.75256095 129.19953261 501.75289695 C130.22326071 501.75311523 131.24698881 501.75333351 132.30173898 501.7535584 C134.37629461 501.75400187 136.45085025 501.75444843 138.52540588 501.75489807 C140.06899173 501.75523022 140.06899173 501.75523022 141.64376113 501.75556907 C158.32000577 501.75951748 174.99620672 501.77697175 191.67243448 501.80025759 C208.78317628 501.82395779 225.89389616 501.83643285 243.00465465 501.83759952 C252.61591771 501.83851707 262.22712387 501.84428941 271.83837128 501.86241913 C280.02253864 501.8778022 288.20663152 501.88295123 296.39081058 501.87468103 C300.56772353 501.87076804 304.74448641 501.87173556 308.921381 501.88573837 C312.74467688 501.89843869 316.56770933 501.89731404 320.39100465 501.88514766 C321.77462505 501.88318391 323.15826386 501.8863003 324.54185835 501.89499202 C326.42238217 501.90605809 328.30299266 501.89682115 330.18352127 501.88660049 C331.75051974 501.88749613 331.75051974 501.88749613 333.34917474 501.88840985 C338.08124452 501.28990931 341.33498354 499.56466387 344.55421448 496.0771637 C347.63849508 491.56089567 348.55406162 488.78874054 348.55031013 483.24404526 C348.55429223 481.9472247 348.55827433 480.65040414 348.5623771 479.31428599 C348.55667095 477.87186154 348.55077975 476.4294378 348.54472351 474.98701477 C348.54559538 473.45738569 348.54734601 471.9277569 348.54990184 470.3981297 C348.55438309 466.1885467 348.54636104 461.97906509 348.53634572 457.76949501 C348.5277247 453.23237227 348.53063042 448.69525545 348.53215027 444.15812683 C348.53319997 436.29515473 348.52691443 428.43221578 348.51567459 420.56925201 C348.49943415 409.20067085 348.49421308 397.83210575 348.49169861 386.46351424 C348.48731922 368.01961747 348.47400349 349.57573837 348.45509338 331.1318512 C348.4367409 313.21323231 348.42258131 295.29461821 348.41407776 277.37599182 C348.41355231 276.27185435 348.41302686 275.16771688 348.4124855 274.0301207 C348.40987546 268.4910969 348.40734803 262.95207307 348.40486169 257.41304922 C348.38412159 211.44690847 348.34888941 165.48078699 348.30421448 119.5146637 C347.18636566 119.51323868 346.06851685 119.51181366 344.91679382 119.51034546 C334.35351915 119.49363579 323.79062775 119.45074094 313.22755623 119.38257313 C307.79764976 119.34836342 302.36802286 119.32320248 296.93800354 119.31910706 C291.69224322 119.31481125 286.44711292 119.28624197 281.20154953 119.24123192 C279.20585177 119.2282979 277.21007845 119.22393463 275.21434402 119.2285099 C254.41679951 119.26506539 254.41679951 119.26506539 247.30421448 113.5146637 C241.49482509 107.42143823 241.15434442 101.76682832 241.09889221 93.70704651 C241.08899261 92.81888748 241.07909302 91.93072845 241.06889343 91.01565552 C241.03733259 88.08306026 241.01254238 85.15044882 240.98780823 82.2177887 C240.96723403 80.18325889 240.94623743 78.14873331 240.92483521 76.11421204 C240.86966269 70.7614637 240.82023212 65.40867709 240.77198792 60.05586243 C240.72173772 54.59287615 240.66607001 49.1299454 240.6108551 43.66700745 C240.50333247 32.94960697 240.40187438 22.23215827 240.30421448 11.5146637 C208.68523785 11.42342149 177.06629866 11.35262926 145.44722115 11.31040238 C141.71465621 11.30539953 137.98209153 11.30022224 134.24952698 11.29493713 C133.50643776 11.29388789 132.76334855 11.29283865 131.99774148 11.29175761 C119.96431529 11.27435039 107.93096551 11.24281098 95.89758466 11.20605251 C83.55104497 11.16865187 71.2045453 11.14642971 58.85795128 11.13830972 C51.23885621 11.1328201 43.6199771 11.1154792 36.0009485 11.08299783 C30.15955176 11.05936276 24.31826597 11.05684165 18.47681999 11.06223297 C16.07984143 11.0611309 13.68285483 11.05315277 11.28592491 11.0378418 C8.01656222 11.01797916 4.7481281 11.02271165 1.47874451 11.03364563 C0.05169089 11.01616858 0.05169089 11.01616858 -1.40419209 10.99833846 C-8.3876261 11.06158954 -12.22677861 12.77873712 -17.00828552 18.0771637 Z " fill="#020202" transform="translate(91.69578552246094,-0.5146636962890625)"/>
<path d="M0 0 C5.41058737 4.51569316 10.43881441 9.29600935 15.41381836 14.28442383 C16.2243869 15.09324005 17.03495544 15.90205627 17.87008667 16.73538208 C20.52918126 19.3901007 23.18463165 22.04842985 25.83984375 24.70703125 C27.69057337 26.55708701 29.5414514 28.40699432 31.39247131 30.25675964 C35.25994651 34.12242208 39.12532246 37.99017418 42.98950195 41.85913086 C47.46104475 46.33613769 51.93620976 50.80949959 56.41322798 55.28103048 C60.72490824 59.58763728 65.03378591 63.89703657 69.34146309 68.20764732 C71.17445934 70.04131269 73.0082043 71.87422992 74.84269524 73.70639992 C77.39486408 76.25604607 79.94383416 78.80884638 82.49194336 81.36254883 C83.25705734 82.12563858 84.02217133 82.88872833 84.81047058 83.67494202 C85.49872925 84.36602051 86.18698792 85.057099 86.89610291 85.76911926 C87.80057112 86.67415302 87.80057112 86.67415302 88.72331142 87.59747028 C90 89 90 89 90 90 C79.26457193 90.09269402 68.52923912 90.16376206 57.79349232 90.20724869 C52.80839207 90.22812051 47.82356568 90.25643087 42.83862305 90.30175781 C38.02755226 90.34522985 33.21674483 90.36914016 28.40549278 90.37950897 C26.57025697 90.3868979 24.73503553 90.4013268 22.89991188 90.42292023 C20.32854732 90.45197257 17.75826995 90.45595529 15.18676758 90.45410156 C14.42863266 90.46848267 13.67049774 90.48286377 12.88938904 90.49768066 C9.30758158 90.46975414 7.18786633 90.11573807 4.11332703 88.22161865 C-0.16427157 83.72482629 -0.2849452 80.07630509 -0.22705078 74.01855469 C-0.22734283 73.2181778 -0.22763489 72.4178009 -0.22793579 71.59317017 C-0.22654455 68.95262744 -0.21099308 66.31236832 -0.1953125 63.671875 C-0.19158164 61.83913324 -0.18873501 60.00638949 -0.18673706 58.17364502 C-0.17910637 53.35345946 -0.15946269 48.53339471 -0.1373291 43.71325684 C-0.11685855 38.79322952 -0.10773275 33.87318265 -0.09765625 28.953125 C-0.0762163 19.3020303 -0.04208712 9.6510252 0 0 Z " fill="#F36757" transform="translate(342,18)"/>
<path d="M0 0 C2.1875 0.875 2.1875 0.875 4.1875 2.875 C4.39109969 5.43288421 4.47071762 7.88296198 4.4621582 10.44238281 C4.46726913 11.22307632 4.47238007 12.00376984 4.47764587 12.80812073 C4.49158545 15.39819942 4.49058124 17.98801317 4.48828125 20.578125 C4.49216705 22.37693379 4.49650148 24.17574166 4.50126648 25.97454834 C4.50873899 29.75080331 4.5084309 33.52696482 4.50317383 37.30322266 C4.49739132 42.13648798 4.51427558 46.96936859 4.5375185 51.80257034 C4.55227426 55.52069324 4.5531248 59.23872404 4.55000877 62.95687103 C4.55052151 64.73821522 4.55575023 66.51956463 4.56582069 68.30088043 C4.57819745 70.79751774 4.57138525 73.29341306 4.55981445 75.79003906 C4.56745819 76.52273514 4.57510193 77.25543121 4.58297729 78.0103302 C4.52635494 83.55529709 3.26555754 87.66735313 -0.56640625 91.73828125 C-1.46166016 92.45564453 -1.46166016 92.45564453 -2.375 93.1875 C-3.27412109 93.92419922 -3.27412109 93.92419922 -4.19140625 94.67578125 C-8.35665096 97.75705866 -12.81424276 97.41454201 -17.8125 96.875 C-22.67215186 95.19105284 -25.97922359 92.12491462 -28.8125 87.875 C-30.75045159 82.06114524 -30.83305692 75.95391224 -28.125 70.4375 C-25.32902117 67.33925319 -22.56288531 64.75019266 -18.8125 62.875 C-14.8525 62.875 -10.8925 62.875 -6.8125 62.875 C-7.1425 47.365 -7.4725 31.855 -7.8125 15.875 C-12.30875 18.35 -16.805 20.825 -21.4375 23.375 C-22.82404785 24.13748047 -24.2105957 24.89996094 -25.63916016 25.68554688 C-27.35304932 26.63010742 -27.35304932 26.63010742 -29.1015625 27.59375 C-30.81400146 28.53637695 -30.81400146 28.53637695 -32.56103516 29.49804688 C-33.1814267 29.86329468 -33.80181824 30.22854248 -34.44100952 30.6048584 C-36.8125 31.875 -36.8125 31.875 -40.36099243 33.32971191 C-44.40621183 35.09798292 -47.5183612 36.88343957 -50.8125 39.875 C-52.77276726 45.52823394 -52.49749652 50.86470208 -52.2578125 56.78125 C-52.24395728 58.43212703 -52.2369002 60.08307373 -52.23629761 61.73400879 C-52.21923982 66.06686357 -52.12215074 70.39401506 -52.00421143 74.72515869 C-51.82978808 81.65342008 -51.78107779 88.58380547 -51.72594833 95.51383972 C-51.69587958 97.92330905 -51.63381226 100.33022525 -51.56594849 102.7388916 C-51.40319062 110.33690671 -51.31262554 116.40432546 -55.8125 122.875 C-60.92757852 127.74056249 -65.2587712 128.22830453 -72.0859375 128.15625 C-77.19124325 127.6296282 -79.81226047 124.98337353 -83.125 121.3125 C-86.4465372 116.51472404 -86.54050525 111.52331662 -85.8125 105.875 C-84.10490257 101.3801135 -81.52670433 98.01637027 -77.5 95.375 C-72.31312284 93.26508387 -68.2182049 93.07309837 -62.8125 94.875 C-62.82360306 94.13219788 -62.83470612 93.38939575 -62.84614563 92.62408447 C-62.94637134 85.620533 -63.02247625 78.61723028 -63.07156086 71.61316299 C-63.09764472 68.01230504 -63.13301793 64.41204008 -63.18969727 60.81152344 C-63.24406439 57.33609959 -63.27392966 53.86124568 -63.28688622 50.38542938 C-63.30060817 48.41547326 -63.33963486 46.44574618 -63.37898254 44.47613525 C-63.3793602 43.27519226 -63.37973785 42.07424927 -63.38012695 40.83691406 C-63.39123001 39.77990295 -63.40233307 38.72289185 -63.41377258 37.6338501 C-62.60091775 33.90418623 -60.93520941 32.93087858 -57.8125 30.875 C-56.28852424 29.92324877 -54.74063434 29.00878433 -53.171875 28.1328125 C-52.27791016 27.63064209 -51.38394531 27.12847168 -50.46289062 26.61108398 C-49.50576172 26.07942627 -48.54863281 25.54776855 -47.5625 25 C-46.56412109 24.44062744 -45.56574219 23.88125488 -44.53710938 23.30493164 C-42.4067065 22.11195231 -40.27516079 20.92101193 -38.14257812 19.73193359 C-33.62681073 17.21383045 -29.11683373 14.68543614 -24.60644531 12.15771484 C-22.4552819 10.95266792 -20.30361127 9.7485259 -18.15136719 8.54541016 C-17.16297852 7.99288574 -16.17458984 7.44036133 -15.15625 6.87109375 C-14.23094482 6.35546875 -13.30563965 5.83984375 -12.35229492 5.30859375 C-10.1374649 4.05842727 -7.95335638 2.76790592 -5.76953125 1.46484375 C-2.8125 -0.125 -2.8125 -0.125 0 0 Z " fill="#060505" transform="translate(185.8125,344.125)"/>
<path d="M0 0 C1.63000488 1.04145813 1.63000488 1.04145813 3 3 C3.30639976 5.62733526 3.43041856 8.01996704 3.41992188 10.64916992 C3.42839142 11.42679688 3.43686096 12.20442383 3.44558716 13.00561523 C3.4690159 15.58073218 3.46997753 18.15525318 3.46875 20.73046875 C3.47585102 22.52305846 3.48354994 24.3156459 3.49182129 26.10823059 C3.50528172 29.87015083 3.50682922 33.63186122 3.50097656 37.39379883 C3.49509668 42.20130969 3.5255931 47.00780499 3.56609344 51.81511974 C3.5920273 55.52048615 3.59484239 59.22561043 3.59120178 62.93105507 C3.59288954 64.70239108 3.60249879 66.47373868 3.62034607 68.24498558 C3.77401258 85.39018932 3.77401258 85.39018932 -2 92 C-6.72113396 96.30456332 -11.73658567 96.51788433 -17.91015625 96.48046875 C-23.02279792 95.6854562 -25.83183866 92.93117402 -29 89 C-31.85996655 84.5908849 -31.62174942 79.09356252 -31 74 C-29.37498783 68.66214357 -25.92088851 65.58515607 -21.16015625 62.87109375 C-16.680209 61.06453274 -12.55774994 61.48075002 -8 63 C-8 47.16 -8 31.32 -8 15 C-14.1875 18.4340625 -14.1875 18.4340625 -20.5 21.9375 C-21.83861084 22.68 -23.17722168 23.4225 -24.55639648 24.1875 C-29.81092152 27.1047813 -35.06309224 30.02481813 -40.28515625 33 C-41.02378906 33.42031494 -41.76242188 33.84062988 -42.5234375 34.27368164 C-43.85237836 35.03218991 -45.17931157 35.79422993 -46.50390625 36.56030273 C-50.78068541 39 -50.78068541 39 -53 39 C-52.98334541 40.42034546 -52.98334541 40.42034546 -52.96635437 41.86938477 C-52.86478193 50.81420099 -52.78994077 59.75889947 -52.74093914 68.7041626 C-52.71489932 73.30253222 -52.67960479 77.90043447 -52.62280273 82.49853516 C-52.56828134 86.94005902 -52.53853726 91.38113472 -52.52561378 95.82296753 C-52.51640985 97.5134079 -52.49843654 99.20382508 -52.47134972 100.89407349 C-52.22560467 116.87132965 -52.22560467 116.87132965 -56.61213684 122.62548828 C-60.63383991 126.608502 -64.26245623 128.22304186 -69.9375 128.5625 C-76.73527308 128.26244609 -80.87335703 125.17980905 -85.5 120.4375 C-87.74392156 115.29517977 -87.75106183 110.52295971 -87 105 C-84.58064724 99.98208316 -81.0008269 96.50041345 -76 94 C-73.95944995 93.92934383 -71.91665743 93.91578024 -69.875 93.9375 C-68.77929688 93.94652344 -67.68359375 93.95554687 -66.5546875 93.96484375 C-65.71164063 93.97644531 -64.86859375 93.98804688 -64 94 C-64.00888245 93.26972595 -64.01776489 92.5394519 -64.0269165 91.78704834 C-64.10710091 84.90122939 -64.16798393 78.01548032 -64.20724869 71.12931442 C-64.22811412 67.58909928 -64.25641126 64.04927026 -64.30175781 60.50927734 C-64.35357738 56.43843909 -64.37295369 52.36800573 -64.390625 48.296875 C-64.41127014 47.02696716 -64.43191528 45.75705933 -64.45318604 44.44866943 C-64.45348816 43.26774719 -64.45379028 42.08682495 -64.45410156 40.87011719 C-64.46298401 39.83087097 -64.47186646 38.79162476 -64.48101807 37.72088623 C-63.87359386 34.28498168 -62.66903353 33.1722953 -60 31 C-58.23181089 29.87817789 -56.42070748 28.82243388 -54.58203125 27.8203125 C-52.96458008 26.93122192 -52.96458008 26.93122192 -51.31445312 26.02416992 C-50.15880859 25.39744385 -49.00316406 24.77071777 -47.8125 24.125 C-46.61219941 23.46733838 -45.41233511 22.80887991 -44.21289062 22.1496582 C-41.72868612 20.78470183 -39.24298577 19.42252896 -36.75634766 18.06201172 C-30.81701828 14.80731848 -24.90881072 11.49719986 -19 8.1875 C-17.93885986 7.59533691 -16.87771973 7.00317383 -15.78442383 6.39306641 C-14.80368896 5.84440918 -13.8229541 5.29575195 -12.8125 4.73046875 C-11.52279297 4.00960083 -11.52279297 4.00960083 -10.20703125 3.27416992 C-3.72846117 -0.46605765 -3.72846117 -0.46605765 0 0 Z " fill="#060605" transform="translate(187,192)"/>
<path d="M0 0 C2.42811251 3.64216877 2.29579391 6.34640056 2.29052734 10.55737305 C2.29724457 11.32524643 2.30396179 12.09311981 2.31088257 12.88426208 C2.32990273 15.42681326 2.33378939 17.96910081 2.3359375 20.51171875 C2.3423649 22.28188688 2.34909322 24.05205395 2.35610962 25.82221985 C2.36809402 29.5370225 2.37178948 33.25173211 2.37060547 36.96655273 C2.37040273 41.71337357 2.39765267 46.45959265 2.43214989 51.20627117 C2.45445861 54.86528733 2.45844172 58.52415989 2.45738602 62.18323708 C2.459738 63.93223955 2.46853879 65.68124623 2.48405075 67.4301815 C2.50378254 69.88575833 2.4978444 72.34005413 2.48583984 74.7956543 C2.49707886 75.51023804 2.50831787 76.22482178 2.51989746 76.96105957 C2.45395772 82.30443493 1.02038078 86.56310791 -2 91 C-8.04436086 95.81081783 -13.44932966 96.84812522 -21 96 C-26.31565158 93.34217421 -30.10236008 89.69291975 -32 84 C-32.50442239 78.7325072 -32.6716659 74.36820832 -30.3125 69.5625 C-26.79285061 65.66234798 -23.55459155 62.24366152 -18.0625 61.8671875 C-17.0415625 61.87105469 -17.0415625 61.87105469 -16 61.875 C-15.319375 61.87242188 -14.63875 61.86984375 -13.9375 61.8671875 C-12 62 -12 62 -9 63 C-9 47.16 -9 31.32 -9 15 C-12.63 16.98 -16.26 18.96 -20 21 C-21.84452573 22.00097054 -23.68942967 23.00124549 -25.53515625 24 C-26.44716797 24.495 -27.35917969 24.99 -28.29882812 25.5 C-30.14429415 26.50163809 -31.99065266 27.50163353 -33.83789062 28.5 C-39.32681271 31.48336317 -44.70002749 34.5925024 -50.00170898 37.8984375 C-52 39 -52 39 -54 39 C-53.99111755 39.9513382 -53.98223511 40.90267639 -53.9730835 41.88284302 C-53.8919208 50.85775454 -53.83199779 59.83259139 -53.79275131 68.80778694 C-53.77189574 73.42181851 -53.74361538 78.03555329 -53.69824219 82.64941406 C-53.65471172 87.10387963 -53.63084762 91.55806012 -53.62049103 96.01272202 C-53.61311255 97.71037151 -53.59870394 99.40800579 -53.57707977 101.1055336 C-53.5479492 103.48752543 -53.5440479 105.86834636 -53.54589844 108.25048828 C-53.52432678 109.2981411 -53.52432678 109.2981411 -53.50231934 110.36695862 C-53.5441868 115.36287424 -54.90915545 118.13451247 -58 122 C-62.21147158 125.88751222 -65.71458904 127.79223537 -71.4375 128.3125 C-77.22165066 127.80511836 -80.52308009 125.76760861 -84.3125 121.5 C-88.00843608 117.07651745 -88.34664754 113.11992006 -88.28125 107.50390625 C-87.7247527 102.54953445 -84.97706409 99.86074694 -81.375 96.6875 C-77.58432903 93.99412852 -75.51335226 93.88815583 -70.875 93.9375 C-69.77929688 93.94652344 -68.68359375 93.95554687 -67.5546875 93.96484375 C-66.71164063 93.97644531 -65.86859375 93.98804688 -65 94 C-65.01110306 93.25719788 -65.02220612 92.51439575 -65.03364563 91.74908447 C-65.13387134 84.745533 -65.20997625 77.74223028 -65.25906086 70.73816299 C-65.28514472 67.13730504 -65.32051793 63.53704008 -65.37719727 59.93652344 C-65.43156439 56.46109959 -65.46142966 52.98624568 -65.47438622 49.51042938 C-65.48810817 47.54047326 -65.52713486 45.57074618 -65.56648254 43.60113525 C-65.5668602 42.40019226 -65.56723785 41.19924927 -65.56762695 39.96191406 C-65.57873001 38.90490295 -65.58983307 37.84789185 -65.60127258 36.7588501 C-64.78622384 33.01911979 -63.13741097 32.05831 -60 30 C-58.02930351 28.82356056 -56.03055634 27.69332676 -54.01171875 26.6015625 C-53.43973251 26.28963959 -52.86774628 25.97771667 -52.27842712 25.65634155 C-50.41705692 24.64165253 -48.55238725 23.63320821 -46.6875 22.625 C-39.05109764 18.47893876 -31.44427121 14.31359023 -23.99609375 9.8359375 C-22.9181958 9.18931152 -21.84029785 8.54268555 -20.72973633 7.87646484 C-18.70483701 6.65264034 -16.68730623 5.41651502 -14.6784668 4.16650391 C-5.9059229 -1.12196952 -5.9059229 -1.12196952 0 0 Z " fill="#060505" transform="translate(188,40)"/>
<path d="M0 0 C0 15.84 0 31.68 0 48 C-5.94 48.495 -5.94 48.495 -12 49 C-16.92117947 51.37271153 -19.38938915 54.23747565 -22 59 C-21.92243917 62.36145619 -21.92243917 62.36145619 -21.3125 65.875 C-21.06774088 72.58272301 -22.55799752 75.49351107 -27.06323242 80.42236328 C-29.68677734 83.06610126 -32.36727297 85.63628065 -35.10253906 88.1640625 C-37.01073474 90.01038667 -38.72273153 91.93631946 -40.4296875 93.96875 C-41.27789062 94.9690625 -42.12609375 95.969375 -43 97 C-43.33 97 -43.66 97 -44 97 C-44.09267747 87.81190061 -44.16375324 78.62396209 -44.20724869 69.43549728 C-44.22812433 65.16890708 -44.25644109 60.90263664 -44.30175781 56.63623047 C-44.3452171 52.51893216 -44.36913728 48.40194143 -44.37950897 44.28443146 C-44.38690027 42.7135153 -44.40133388 41.14261598 -44.42292023 39.57183075 C-44.45195682 37.37141031 -44.45595612 35.17226087 -44.45410156 32.97167969 C-44.46298401 31.71925476 -44.47186646 30.46682983 -44.48101807 29.17645264 C-43.91039645 25.40829369 -42.95398321 24.31494045 -40 22 C-38.41652793 20.9692714 -36.79283647 19.99853683 -35.140625 19.08203125 C-34.19654785 18.55375732 -33.2524707 18.0254834 -32.27978516 17.48120117 C-30.7800415 16.65519409 -30.7800415 16.65519409 -29.25 15.8125 C-28.22825684 15.24313721 -27.20651367 14.67377441 -26.15380859 14.0871582 C-24.08597833 12.93492389 -22.01681361 11.78508103 -19.94628906 10.63769531 C-17.27703904 9.1539922 -14.61660113 7.65628698 -11.9609375 6.1484375 C-10.85057129 5.51844849 -10.85057129 5.51844849 -9.71777344 4.87573242 C-8.34815423 4.09809165 -6.97899485 3.31964031 -5.61035156 2.5402832 C-1.11224743 0 -1.11224743 0 0 0 Z " fill="#FDFDFD" transform="translate(179,359)"/>
<path d="M0 0 C0.73054802 -0.00382555 1.46109605 -0.00765109 2.21378189 -0.01159257 C4.67433674 -0.0219538 7.1346596 -0.01792457 9.5952301 -0.01396179 C11.35418414 -0.01830655 13.11313627 -0.0234889 14.87208557 -0.02944946 C19.65922719 -0.04287626 24.44629005 -0.04341405 29.23344684 -0.04088616 C33.2247081 -0.03981892 37.21595325 -0.04469347 41.20721108 -0.04949158 C50.62057985 -0.06059954 60.03390872 -0.06101697 69.44728088 -0.05497742 C79.16984462 -0.04893556 88.89226372 -0.06125108 98.61480278 -0.08254749 C106.95198538 -0.10014028 115.28912184 -0.10616852 123.62632233 -0.10290974 C128.61026028 -0.101093 133.59409507 -0.10377182 138.57801628 -0.11762428 C143.26393792 -0.13016031 147.94963346 -0.1282988 152.63555145 -0.11521339 C154.35811755 -0.11283879 156.08069935 -0.11561372 157.80324745 -0.12383652 C160.14953361 -0.13423153 162.49505084 -0.12626256 164.84130859 -0.11352539 C166.8132754 -0.113777 166.8132754 -0.113777 168.82507992 -0.1140337 C171.98414612 0.26069641 171.98414612 0.26069641 173.90713596 1.62783527 C175.45834398 3.97963045 175.39751276 5.50491879 174.98414612 8.26069641 C173.90434265 9.89313698 173.90434265 9.89313698 171.98414612 11.26069641 C168.8434906 11.63821983 168.8434906 11.63821983 164.88600159 11.64164734 C164.15868269 11.64632731 163.43136379 11.65100728 162.68200493 11.65582907 C160.23826382 11.66782109 157.79507916 11.65830573 155.35133362 11.64888 C153.60208305 11.65294385 151.85283504 11.65828467 150.10359192 11.66481018 C145.34745771 11.67851189 140.59151826 11.67317338 135.83538055 11.66367292 C130.86396754 11.65609109 125.89257149 11.66311782 120.92115784 11.66783142 C112.57168069 11.67329329 104.22228308 11.66608606 95.87281799 11.65180969 C86.21214104 11.63548236 76.55165402 11.64077056 66.89098167 11.65728891 C58.60472675 11.67089151 50.31852909 11.67282945 42.03226662 11.6649729 C37.07965099 11.66028963 32.1271247 11.65968945 27.17451477 11.66958237 C22.51893448 11.67823194 17.86359966 11.67226703 13.20804596 11.6548996 C11.49677183 11.65092398 9.78547714 11.6520871 8.07421112 11.65868759 C5.7432896 11.66685099 3.41316124 11.65664545 1.08229065 11.64164734 C-0.22368073 11.64051626 -1.5296521 11.63938519 -2.87519836 11.63821983 C-6.01585388 11.26069641 -6.01585388 11.26069641 -7.93995667 9.92829323 C-9.60335294 7.35009683 -9.33317864 5.24354917 -9.01585388 2.26069641 C-6.12310295 -0.63205452 -4.05278431 0.0063304 0 0 Z " fill="#080808" transform="translate(237.01585388183594,402.7393035888672)"/>
<path d="M0 0 C1.09582204 -0.00467997 1.09582204 -0.00467997 2.21378189 -0.00945449 C4.67434546 -0.01746457 7.13466447 -0.01109922 9.5952301 -0.00482178 C11.3541834 -0.00753033 13.11313557 -0.0110905 14.87208557 -0.01544189 C19.6592341 -0.02458499 24.44629674 -0.02101358 29.23344684 -0.01468372 C34.23555918 -0.00963285 39.23766399 -0.0143127 44.23977661 -0.01745605 C52.64229151 -0.02109871 61.04477131 -0.01628913 69.44728088 -0.0067749 C79.16981683 0.00410668 88.89226887 0.00058742 98.61480278 -0.01042771 C106.95198328 -0.0194963 115.28913849 -0.02078786 123.62632233 -0.01555037 C128.6102343 -0.01242786 133.59410682 -0.01202897 138.57801628 -0.01862335 C143.26390138 -0.02438984 147.94967809 -0.02041272 152.63555145 -0.00883484 C154.35811495 -0.00618436 156.08068753 -0.00695993 157.80324745 -0.01136017 C160.14939209 -0.01680192 162.49518645 -0.00999833 164.84130859 0 C166.15595313 0.00075405 167.47059767 0.0015081 168.82507992 0.002285 C171.98414612 0.25396729 171.98414612 0.25396729 174.98414612 2.25396729 C175.42164612 5.19146729 175.42164612 5.19146729 174.98414612 8.25396729 C172.61867727 10.75284724 171.17767657 11.23147334 167.73606014 11.63149071 C166.4383849 11.63262178 165.14070967 11.63375286 163.80371094 11.63491821 C163.07962117 11.63959818 162.3555314 11.64427816 161.60949951 11.64909995 C159.18268185 11.66106813 156.75642698 11.65158592 154.3296051 11.64215088 C152.5900591 11.64621574 150.85051569 11.65155714 149.11097717 11.65808105 C144.38589242 11.67176958 139.66100394 11.66644994 134.93591571 11.6569438 C129.99520505 11.64935638 125.05451136 11.65639014 120.11380005 11.66110229 C111.8173775 11.66656201 103.52103503 11.65936203 95.22462463 11.64508057 C85.62584248 11.62874827 76.02725143 11.6340459 66.42847389 11.65055978 C58.1931537 11.66416208 49.95789112 11.66610063 41.72256333 11.65824378 C36.80126153 11.65356103 31.88004964 11.652959 26.95875359 11.66285324 C22.33352815 11.67150256 17.7085498 11.66553838 13.08335114 11.64817047 C11.38336409 11.64419495 9.68335634 11.64535781 7.98337746 11.65195847 C5.66783431 11.66012211 3.35308954 11.64991612 1.03759766 11.63491821 C-0.25970056 11.63378714 -1.55699877 11.63265606 -2.89360905 11.63149071 C-6.01585388 11.25396729 -6.01585388 11.25396729 -7.93716335 9.9215641 C-9.60450157 7.34395002 -9.3333261 5.23820617 -9.01585388 2.25396729 C-6.1224895 -0.6393971 -4.05340826 0.00232561 0 0 Z " fill="#090909" transform="translate(237.01585388183594,366.74603271484375)"/>
<path d="M0 0 C0.69318077 0.00446144 1.38636154 0.00892289 2.10054779 0.01351953 C2.83588493 0.01039954 3.57122208 0.00727956 4.32884216 0.00406504 C6.80555872 -0.00394516 9.28203231 0.00242032 11.75875092 0.00869775 C13.52917882 0.00598922 15.29960559 0.00242907 17.07003021 -0.00192237 C21.88810217 -0.01106514 26.70608878 -0.00749436 31.52416229 -0.0011642 C36.55743903 0.00388605 41.59070828 -0.00079293 46.62398529 -0.00393653 C55.07777473 -0.00757903 63.53152927 -0.00276965 71.98531342 0.00674462 C81.77035316 0.01762971 91.55530957 0.01410434 101.34034729 0.00309181 C109.72931636 -0.00597299 118.11826028 -0.0072703 126.50723267 -0.00203085 C131.52297075 0.0010933 136.53866962 0.00148604 141.55440521 -0.00510383 C146.26901415 -0.01086496 150.98351525 -0.0069031 155.69811249 0.00468469 C157.43238394 0.0073379 159.1666644 0.00655499 160.90093231 0.00215936 C163.26056369 -0.00327162 165.61984521 0.00350788 167.97945404 0.01351953 C168.67263481 0.00905808 169.36581558 0.00459664 170.08000183 0 C174.81170071 0.0391866 174.81170071 0.0391866 177.04000092 2.26748681 C177.29000092 5.26748681 177.29000092 5.26748681 177.04000092 8.26748681 C174.62200157 10.68548616 173.37915689 10.50765095 170.08000183 10.53497362 C169.38682106 10.53051218 168.69364029 10.52605073 167.97945404 10.5214541 C167.2441169 10.52457408 166.50877975 10.52769406 165.75115967 10.53090858 C163.27444311 10.53891878 160.79796952 10.5325533 158.32125092 10.52627587 C156.55082302 10.5289844 154.78039624 10.53254455 153.00997162 10.53689599 C148.19189966 10.54603876 143.37391305 10.54246799 138.55583954 10.53613782 C133.5225628 10.53108757 128.48929355 10.53576655 123.45601654 10.53891015 C115.0022271 10.54255265 106.54847256 10.53774327 98.09468842 10.528229 C88.30964867 10.51734391 78.52469226 10.52086929 68.73965454 10.53188181 C60.35068547 10.54094662 51.96174155 10.54224392 43.57276917 10.53700447 C38.55703108 10.53388032 33.54133221 10.53348759 28.52559662 10.54007745 C23.81098768 10.54583858 19.09648658 10.54187672 14.38188934 10.53028893 C12.64761789 10.52763572 10.91333743 10.52841864 9.17906952 10.53281426 C6.81943814 10.53824524 4.46015662 10.53146574 2.10054779 10.5214541 C1.06077663 10.52814626 1.06077663 10.52814626 0 10.53497362 C-4.73169887 10.49578702 -4.73169887 10.49578702 -6.95999908 8.26748681 C-7.20999908 5.26748681 -7.20999908 5.26748681 -6.95999908 2.26748681 C-4.54199974 -0.15051254 -3.29915506 0.02732268 0 0 Z " fill="#000000" transform="translate(234.95999908447266,250.7325131893158)"/>
<path d="M0 0 C0.69318077 0.00446144 1.38636154 0.00892289 2.10054779 0.01351953 C2.83588493 0.01039954 3.57122208 0.00727956 4.32884216 0.00406504 C6.80555872 -0.00394516 9.28203231 0.00242032 11.75875092 0.00869775 C13.52917882 0.00598922 15.29960559 0.00242907 17.07003021 -0.00192237 C21.88810217 -0.01106514 26.70608878 -0.00749436 31.52416229 -0.0011642 C36.55743903 0.00388605 41.59070828 -0.00079293 46.62398529 -0.00393653 C55.07777473 -0.00757903 63.53152927 -0.00276965 71.98531342 0.00674462 C81.77035316 0.01762971 91.55530957 0.01410434 101.34034729 0.00309181 C109.72931636 -0.00597299 118.11826028 -0.0072703 126.50723267 -0.00203085 C131.52297075 0.0010933 136.53866962 0.00148604 141.55440521 -0.00510383 C146.26901415 -0.01086496 150.98351525 -0.0069031 155.69811249 0.00468469 C157.43238394 0.0073379 159.1666644 0.00655499 160.90093231 0.00215936 C163.26056369 -0.00327162 165.61984521 0.00350788 167.97945404 0.01351953 C168.67263481 0.00905808 169.36581558 0.00459664 170.08000183 0 C174.81170071 0.0391866 174.81170071 0.0391866 177.04000092 2.26748681 C177.35250092 5.26748681 177.35250092 5.26748681 177.04000092 8.26748681 C173.29896629 10.76150989 171.37028278 10.51888841 166.89716339 10.5214541 C166.16505538 10.52457408 165.43294736 10.52769406 164.67865425 10.53090858 C162.21886239 10.53890314 159.75931622 10.53255936 157.2995224 10.52627587 C155.53879908 10.52898507 153.7780769 10.53254559 152.01735687 10.53689599 C147.23033466 10.54603012 142.44339845 10.5424717 137.65637469 10.53613782 C132.65380031 10.53108392 127.65123342 10.53576749 122.64865875 10.53891015 C114.24792403 10.54255124 105.84722445 10.53774659 97.44649506 10.528229 C87.72335033 10.51734064 78.00028945 10.52087222 68.27714676 10.53188181 C59.93911248 10.5409464 51.60110349 10.54224414 43.26306587 10.53700447 C38.27864174 10.53388066 33.29425706 10.53348675 28.30983543 10.54007745 C23.62558169 10.54583838 18.94143649 10.5418771 14.25719452 10.53028893 C12.53421013 10.52763577 10.81121667 10.52841856 9.08823586 10.53281426 C6.74398389 10.53824532 4.40008406 10.53146569 2.0558548 10.5214541 C0.74158729 10.52070004 -0.57268023 10.51994599 -1.92677402 10.51916909 C-4.95999908 10.26748681 -4.95999908 10.26748681 -6.95999908 8.26748681 C-7.20999908 5.26748681 -7.20999908 5.26748681 -6.95999908 2.26748681 C-4.54199974 -0.15051254 -3.29915506 0.02732268 0 0 Z " fill="#000000" transform="translate(234.95999908447266,214.7325131893158)"/>
<path d="M0 0 C0.88319412 -0.00511093 1.76638824 -0.01022186 2.67634583 -0.01548767 C5.6000544 -0.02940473 8.52352784 -0.02842549 11.44726562 -0.02612305 C13.47603443 -0.03000845 15.50480241 -0.0343428 17.53356934 -0.03910828 C21.78721758 -0.04657477 26.04078282 -0.04627582 30.29443359 -0.04101562 C35.75234671 -0.03521659 41.20992096 -0.05216048 46.66777802 -0.0753603 C50.85758458 -0.09007209 55.04730902 -0.09097289 59.23713684 -0.08785057 C61.24982882 -0.08836494 63.26252525 -0.09362431 65.27519226 -0.10366249 C68.08603125 -0.11596185 70.8962034 -0.10927475 73.70703125 -0.09765625 C74.54244949 -0.10529999 75.37786774 -0.11294373 76.23860168 -0.12081909 C81.92306295 -0.06873051 81.92306295 -0.06873051 84.06728363 1.64179707 C85.35351562 3.2746582 85.35351562 3.2746582 85.72851562 5.7746582 C85.28257484 8.74759679 84.66434644 9.4312193 82.35351562 11.2746582 C79.40091128 11.56578997 76.66007668 11.67399182 73.70703125 11.64697266 C72.82383713 11.65062332 71.94064301 11.65427399 71.03068542 11.65803528 C68.10685081 11.66615127 65.18356857 11.65252192 62.25976562 11.63793945 C60.23099773 11.63742097 58.20222932 11.63793821 56.17346191 11.63945007 C51.91976429 11.6393603 47.66625601 11.62892095 43.41259766 11.61083984 C37.95473531 11.58815259 32.49714975 11.58760808 27.03925323 11.59435749 C22.84944185 11.59769584 18.65969379 11.5910699 14.46989441 11.58122826 C12.45721264 11.57737366 10.44452383 11.57622911 8.43183899 11.5778141 C5.62108898 11.57818415 2.81069642 11.56558155 0 11.54931641 C-1.25312737 11.55303253 -1.25312737 11.55303253 -2.53157043 11.55682373 C-6.41955621 11.52083878 -8.33703968 11.48095467 -11.64648438 9.2746582 C-12.02148438 5.7746582 -12.02148438 5.7746582 -11.64648438 2.2746582 C-7.75910502 -0.31692803 -4.50894811 -0.0133712 0 0 Z " fill="#080808" transform="translate(239.646484375,438.725341796875)"/>
<path d="M0 0 C0.84836426 0.00247742 1.69672852 0.00495483 2.57080078 0.00750732 C3.46360245 0.00239639 4.35640411 -0.00271454 5.27626038 -0.00798035 C8.23787067 -0.0219204 11.1992494 -0.02091626 14.16088867 -0.01861572 C16.21350695 -0.02250027 18.26612442 -0.02683443 20.31874084 -0.03160095 C24.62544355 -0.03907269 28.9320643 -0.03876501 33.23876953 -0.0335083 C38.76509108 -0.02771285 44.29107758 -0.04464198 49.81734371 -0.06785297 C54.05776439 -0.08256587 58.29810393 -0.08346534 62.53854561 -0.08034325 C64.57635728 -0.0808577 66.61417335 -0.08611866 68.65196037 -0.09615517 C71.49882822 -0.10845474 74.34503768 -0.10176692 77.19189453 -0.09014893 C78.03823456 -0.09779266 78.88457458 -0.1054364 79.75656128 -0.11331177 C85.51265314 -0.06123752 85.51265314 -0.06123752 87.66651249 1.64539814 C88.94604492 3.28216553 88.94604492 3.28216553 89.25854492 5.84466553 C88.94604492 8.28216553 88.94604492 8.28216553 86.94604492 10.28216553 C84.00425225 10.48098954 81.15657143 10.55482007 78.21362305 10.54095459 C77.30946152 10.54445923 76.40529999 10.54796387 75.47373962 10.55157471 C72.4748474 10.56040175 69.47618968 10.55453943 66.47729492 10.54779053 C64.39986119 10.5491369 62.32242777 10.55107719 60.24499512 10.55358887 C55.88701381 10.55654145 51.52911438 10.55223816 47.17114258 10.54290771 C41.57528415 10.53151313 35.97961756 10.53807189 30.38376617 10.55005264 C26.09277899 10.55726761 21.80183754 10.55498498 17.510849 10.54979706 C15.44709755 10.54845956 13.38334199 10.55011178 11.31959534 10.55475616 C8.43910668 10.55981543 5.55893197 10.55211962 2.6784668 10.54095459 C1.81918076 10.54500305 0.95989471 10.54905151 0.0745697 10.55322266 C-5.82542729 10.51069331 -5.82542729 10.51069331 -8.05395508 8.28216553 C-8.30395508 5.28216553 -8.30395508 5.28216553 -8.05395508 2.28216553 C-5.43419644 -0.33759311 -3.56764782 0.03271919 0 0 Z " fill="#000000" transform="translate(236.053955078125,286.71783447265625)"/>
<path d="M0 0 C1.11755676 -0.00788544 1.11755676 -0.00788544 2.25769043 -0.01593018 C4.72221807 -0.02914123 7.18610047 -0.02038763 9.65063477 -0.01025391 C11.36312484 -0.01227455 13.07561407 -0.0151859 14.7881012 -0.01895142 C18.37851142 -0.02337643 21.96869782 -0.01693888 25.55908203 -0.00292969 C30.16050028 0.0141495 34.76139311 0.00433034 39.36279202 -0.01364708 C42.89984592 -0.02449119 46.43677542 -0.02103549 49.97383308 -0.0132637 C51.67029953 -0.01126276 53.36677727 -0.01371728 55.06323051 -0.02070236 C57.43568675 -0.02832584 59.80729442 -0.01670023 62.1796875 0 C63.23105644 -0.00910904 63.23105644 -0.00910904 64.30366516 -0.0184021 C67.35753191 0.02140066 69.40829786 0.25011544 72.09437561 1.75619507 C73.65454102 3.38818359 73.65454102 3.38818359 74.09204102 5.88818359 C73.56010811 8.9278002 73.16837873 9.62155008 70.65454102 11.38818359 C68.05410788 11.67898087 65.69396706 11.78792067 63.09375 11.76049805 C61.94211365 11.76597404 61.94211365 11.76597404 60.76721191 11.77156067 C58.22812824 11.77967028 55.68968187 11.76605425 53.15063477 11.75146484 C51.38851421 11.75094634 49.62639306 11.75146367 47.86427307 11.75297546 C44.17130906 11.75288573 40.47856328 11.74245212 36.78564453 11.72436523 C32.04511336 11.70166135 27.3049007 11.70113677 22.5643301 11.70788288 C18.92614394 11.71121929 15.2880308 11.70459926 11.64985847 11.69475365 C9.90150395 11.69089693 8.15314131 11.68975538 6.40478325 11.69133949 C3.96500961 11.69170911 1.52564923 11.67912001 -0.9140625 11.6628418 C-1.64086716 11.66531921 -2.36767181 11.66779663 -3.11650085 11.67034912 C-8.11671504 11.61692754 -8.11671504 11.61692754 -10.34545898 9.38818359 C-10.89229925 4.24788508 -10.89229925 4.24788508 -9.28501892 1.72103882 C-6.361378 -0.2880716 -3.42396262 -0.02957972 0 0 Z " fill="#090909" transform="translate(238.345458984375,97.61181640625)"/>
<path d="M0 0 C0.74503784 -0.00511093 1.49007568 -0.01022186 2.25769043 -0.01548767 C4.72208678 -0.02939497 7.18620382 -0.02842607 9.65063477 -0.02612305 C11.36312464 -0.03000939 13.07561354 -0.03434393 14.7881012 -0.03910828 C18.37845992 -0.04657295 21.96872031 -0.04627745 25.55908203 -0.04101562 C30.16047505 -0.03522093 34.76146556 -0.05215063 39.36279202 -0.0753603 C42.89982965 -0.09009108 46.43677021 -0.09097024 49.97383308 -0.08785057 C51.670307 -0.08836412 53.36678631 -0.09360826 55.06323051 -0.10366249 C57.43564899 -0.11599697 59.80728163 -0.1092537 62.1796875 -0.09765625 C62.88060013 -0.10529999 63.58151276 -0.11294373 64.30366516 -0.12081909 C67.35798883 -0.08781103 69.40433004 0.1342422 72.09046936 1.64167786 C73.65454102 3.2746582 73.65454102 3.2746582 74.15454102 5.7746582 C73.65454102 8.2746582 73.65454102 8.2746582 72.09046936 9.90763855 C68.80413085 11.75190024 65.84778141 11.68697471 62.1796875 11.64697266 C61.43289734 11.65062332 60.68610718 11.65427399 59.91668701 11.65803528 C57.45277029 11.66612919 54.98951356 11.652542 52.52563477 11.63793945 C50.81217957 11.63742076 49.09872377 11.63793882 47.38526917 11.63945007 C43.79663189 11.63936041 40.20821952 11.62894115 36.61962891 11.61083984 C32.01710559 11.58813572 27.41491038 11.58761223 22.81234646 11.59435749 C19.27534564 11.5976967 15.73841979 11.59106859 12.20143318 11.58122826 C10.50414484 11.57737642 8.80684817 11.57622798 7.1095562 11.5778141 C4.73954202 11.57818444 2.36995073 11.56557418 0 11.54931641 C-1.05440529 11.55303253 -1.05440529 11.55303253 -2.13011169 11.55682373 C-5.76313798 11.516994 -7.23198676 11.35030635 -10.34545898 9.2746582 C-10.72045898 5.7746582 -10.72045898 5.7746582 -10.34545898 2.2746582 C-6.74824413 -0.12348503 -4.15424612 -0.01464114 0 0 Z " fill="#0A0A0A" transform="translate(238.345458984375,61.725341796875)"/>
<path d="M0 0 C0.85428589 -0.00630432 1.70857178 -0.01260864 2.58874512 -0.019104 C3.51272095 -0.01505554 4.43669678 -0.01100708 5.38867188 -0.00683594 C6.80895691 -0.00970612 6.80895691 -0.00970612 8.25793457 -0.01263428 C10.26196559 -0.01399667 12.26600542 -0.0102965 14.27001953 -0.00195312 C17.34492741 0.00874559 20.41925101 -0.00184666 23.49414062 -0.01464844 C25.43815234 -0.01332685 27.38216368 -0.01076448 29.32617188 -0.00683594 C30.71213562 -0.01290863 30.71213562 -0.01290863 32.12609863 -0.019104 C33.40752747 -0.00964752 33.40752747 -0.00964752 34.71484375 0 C35.4682605 0.00159119 36.22167725 0.00318237 36.9979248 0.00482178 C38.85742188 0.25878906 38.85742188 0.25878906 40.85742188 2.25878906 C41.16992188 5.25878906 41.16992188 5.25878906 40.85742188 8.25878906 C37.78620341 10.30626804 37.15617273 10.51006499 33.69311523 10.51757812 C32.85892563 10.52388245 32.02473602 10.53018677 31.16526794 10.53668213 C30.26832718 10.53263367 29.37138641 10.52858521 28.44726562 10.52441406 C27.52401993 10.52632751 26.60077423 10.52824097 25.64955139 10.5302124 C23.69857511 10.53157314 21.74758974 10.52788447 19.79663086 10.51953125 C16.80301698 10.50881803 13.81000157 10.51943657 10.81640625 10.53222656 C8.92252471 10.53090519 7.02864355 10.52834325 5.13476562 10.52441406 C4.23580063 10.52846252 3.33683563 10.53251099 2.41062927 10.53668213 C1.1640731 10.52722565 1.1640731 10.52722565 -0.10766602 10.51757812 C-0.84030167 10.51598694 -1.57293732 10.51439575 -2.32777405 10.51275635 C-4.14257812 10.25878906 -4.14257812 10.25878906 -6.14257812 8.25878906 C-6.39257812 5.25878906 -6.39257812 5.25878906 -6.14257812 2.25878906 C-3.75410985 -0.12967921 -3.25037237 0.00686466 0 0 Z " fill="#010101" transform="translate(234.142578125,134.7412109375)"/>
<path d="M0 0 C3.375 0.875 3.375 0.875 5.375 2.875 C5.75 6.3125 5.75 6.3125 5.375 9.875 C3.29808202 12.25960953 1.96943084 12.7709746 -1.125 13.3125 C-4.49150098 12.72336233 -5.62608769 11.61425021 -7.625 8.875 C-8.28974877 5.55125617 -7.92761443 4.33497394 -6.0625 1.5 C-3.625 -0.125 -3.625 -0.125 0 0 Z " fill="#F0C33F" transform="translate(173.625,265.125)"/>
<path d="M0 0 C1.875 1.0625 1.875 1.0625 3 3 C3.4375 6.5 3.4375 6.5 3 10 C0.89172636 12.42061048 -0.40345478 12.9127007 -3.5625 13.375 C-6 13 -6 13 -7.8125 11.9375 C-9.67036623 8.90624457 -9.37133265 6.46577141 -9 3 C-6.84332735 -0.71426957 -4.0099826 -0.50124783 0 0 Z " fill="#F3C540" transform="translate(120,449)"/>
<path d="M0 0 C3.5625 0.3125 3.5625 0.3125 5.5 1.4375 C7.06672245 4.20230433 6.95226435 6.19438517 6.5625 9.3125 C5.5 11.1875 5.5 11.1875 3.5625 12.3125 C0.0625 12.75 0.0625 12.75 -3.4375 12.3125 C-5.4375 10.6875 -5.4375 10.6875 -6.4375 8.3125 C-6.12371717 3.0827861 -5.61102633 0.5100933 0 0 Z " fill="#F2C540" transform="translate(172.4375,417.6875)"/>
<path d="M0 0 C2 2 2 2 2.3125 5.4375 C2 9 2 9 0.875 10.9375 C-1.88980433 12.50422245 -3.88188517 12.38976435 -7 12 C-8.875 10.9375 -8.875 10.9375 -10 9 C-10.36841966 5.56141649 -10.58367385 3.09868019 -8.9375 0 C-5.80557344 -1.61647822 -3.32814714 -0.78665296 0 0 Z " fill="#F3C640" transform="translate(121,145)"/>
<path d="M0 0 C3.5625 0.3125 3.5625 0.3125 5.5 1.4375 C7.06672245 4.20230433 6.95226435 6.19438517 6.5625 9.3125 C5.5 11.1875 5.5 11.1875 3.5625 12.3125 C0.0625 12.75 0.0625 12.75 -3.4375 12.3125 C-5.4375 10.6875 -5.4375 10.6875 -6.4375 8.3125 C-6.12371717 3.0827861 -5.61102633 0.5100933 0 0 Z " fill="#F2C540" transform="translate(172.4375,112.6875)"/>
<path d="M0 0 C3.5625 0.3125 3.5625 0.3125 5.5 1.4375 C7.06672245 4.20230433 6.95226435 6.19438517 6.5625 9.3125 C5.5 11.1875 5.5 11.1875 3.5625 12.3125 C0 12.625 0 12.625 -3.4375 12.3125 C-5.4375 10.3125 -5.4375 10.3125 -5.703125 8.4375 C-5.69796875 7.73625 -5.6928125 7.035 -5.6875 6.3125 C-5.69265625 5.61125 -5.6978125 4.91 -5.703125 4.1875 C-5.17728713 0.47570326 -3.48462745 0.31678431 0 0 Z " fill="#F4C640" transform="translate(116.4375,296.6875)"/>
</svg>
