<?xml version="1.0" encoding="UTF-8"?>
<!DOCTYPE svg PUBLIC "-//W3C//DTD SVG 1.1//EN" "http://www.w3.org/Graphics/SVG/1.1/DTD/svg11.dtd">
<svg xmlns="http://www.w3.org/2000/svg" version="1.1" width="512px" height="512px" style="shape-rendering:geometricPrecision; text-rendering:geometricPrecision; image-rendering:optimizeQuality; fill-rule:evenodd; clip-rule:evenodd" xmlns:xlink="http://www.w3.org/1999/xlink">
<g><path style="opacity:0.982" fill="#ffc507" d="M 372.5,142.5 C 419.984,146.991 453.484,170.991 473,214.5C 475.553,220.99 477.387,227.657 478.5,234.5C 468.272,203.44 447.272,183.94 415.5,176C 309.859,174.348 204.192,174.015 98.5,175C 60.679,183.821 38.179,207.321 31,245.5C 29.5165,293.669 52.0165,323.836 98.5,336C 201.833,336.667 305.167,336.667 408.5,336C 439.518,331.477 461.518,314.977 474.5,286.5C 475.097,286.735 475.43,287.235 475.5,288C 458.287,336.711 423.954,363.544 372.5,368.5C 283.166,368.667 193.833,368.5 104.5,368C 46.1509,360.48 11.1509,327.98 -0.5,270.5C -0.5,260.5 -0.5,250.5 -0.5,240.5C 11.1529,183.018 46.1529,150.518 104.5,143C 193.833,142.5 283.166,142.333 372.5,142.5 Z"/></g>
<g><path style="opacity:0.988" fill="#e0ad00" d="M 372.5,142.5 C 404.33,138.801 433.997,144.967 461.5,161C 489.421,180.421 506.087,206.921 511.5,240.5C 511.5,250.5 511.5,260.5 511.5,270.5C 499.847,327.982 464.847,360.482 406.5,368C 395.172,368.5 383.838,368.667 372.5,368.5C 423.954,363.544 458.287,336.711 475.5,288C 475.43,287.235 475.097,286.735 474.5,286.5C 480.76,269.571 482.093,252.238 478.5,234.5C 477.387,227.657 475.553,220.99 473,214.5C 453.484,170.991 419.984,146.991 372.5,142.5 Z"/></g>
<g><path style="opacity:1" fill="#fefefe" d="M 478.5,234.5 C 482.093,252.238 480.76,269.571 474.5,286.5C 461.518,314.977 439.518,331.477 408.5,336C 305.167,336.667 201.833,336.667 98.5,336C 52.0165,323.836 29.5165,293.669 31,245.5C 38.179,207.321 60.679,183.821 98.5,175C 204.192,174.015 309.859,174.348 415.5,176C 447.272,183.94 468.272,203.44 478.5,234.5 Z"/></g>
<g><path style="opacity:1" fill="#525252" d="M 113.5,212.5 C 126.377,211.847 137.544,215.847 147,224.5C 147.848,230.66 145.181,234.327 139,235.5C 134.526,232.682 129.693,230.516 124.5,229C 120.833,228.333 117.167,228.333 113.5,229C 108.178,231.922 107.178,235.922 110.5,241C 119.167,244.667 127.833,248.333 136.5,252C 150.005,260.244 153.172,271.411 146,285.5C 135.306,297.949 122.139,301.449 106.5,296C 100.171,293.335 94.6715,289.502 90,284.5C 87.2036,278.093 89.2036,274.093 96,272.5C 98.3207,272.909 100.487,273.743 102.5,275C 109.831,282.453 118.498,284.453 128.5,281C 135.781,276.28 136.114,271.28 129.5,266C 120.167,262 110.833,258 101.5,254C 88.9896,240.934 89.6562,228.601 103.5,217C 106.815,215.17 110.149,213.67 113.5,212.5 Z"/></g>
<g><path style="opacity:1" fill="#505050" d="M 209.5,227.5 C 204.833,227.5 200.167,227.5 195.5,227.5C 195.5,248.833 195.5,270.167 195.5,291.5C 193.638,297.93 189.638,299.763 183.5,297C 182.299,296.097 181.465,294.931 181,293.5C 180.5,271.836 180.333,250.169 180.5,228.5C 175.821,228.666 171.155,228.499 166.5,228C 161.931,225.459 160.431,221.625 162,216.5C 163.214,214.951 164.714,213.785 166.5,213C 180.833,212.333 195.167,212.333 209.5,213C 217.408,217.922 217.408,222.755 209.5,227.5 Z"/></g>
<g><path style="opacity:1" fill="#515151" d="M 249.5,212.5 C 256.668,212.161 261.168,215.495 263,222.5C 271,243.833 279,265.167 287,286.5C 288.875,294.619 285.708,298.452 277.5,298C 276.069,297.535 274.903,296.701 274,295.5C 272.358,290.903 270.524,286.403 268.5,282C 257.833,281.333 247.167,281.333 236.5,282C 234.546,287.205 232.213,292.205 229.5,297C 225.001,299.367 221.168,298.533 218,294.5C 217.262,290.739 217.595,287.072 219,283.5C 227.196,262.578 235.196,241.578 243,220.5C 244.305,217.039 246.471,214.372 249.5,212.5 Z"/></g>
<g><path style="opacity:1" fill="#505050" d="M 309.5,212.5 C 319.233,212.109 328.9,212.609 338.5,214C 357.169,222.002 362.002,235.169 353,253.5C 348.59,258.284 343.423,261.95 337.5,264.5C 343.481,271.648 349.647,278.648 356,285.5C 359.007,295.489 355.507,299.323 345.5,297C 336.883,287.594 328.383,278.094 320,268.5C 319.945,277.601 319.278,286.601 318,295.5C 314,299.5 310,299.5 306,295.5C 304.352,269.587 304.019,243.587 305,217.5C 306.025,215.313 307.525,213.646 309.5,212.5 Z"/></g>
<g><path style="opacity:1" fill="#515151" d="M 416.5,227.5 C 411.833,227.5 407.167,227.5 402.5,227.5C 402.5,249.167 402.5,270.833 402.5,292.5C 400.129,298.181 396.129,299.681 390.5,297C 389.299,296.097 388.465,294.931 388,293.5C 387.5,271.836 387.333,250.169 387.5,228.5C 382.821,228.666 378.155,228.499 373.5,228C 368.931,225.459 367.431,221.625 369,216.5C 370.214,214.951 371.714,213.785 373.5,213C 387.833,212.333 402.167,212.333 416.5,213C 422.331,215.172 423.831,219.005 421,224.5C 419.871,226.141 418.371,227.141 416.5,227.5 Z"/></g>
<g><path style="opacity:1" fill="#bcbcbc" d="M 209.5,227.5 C 205.366,228.485 201.032,228.818 196.5,228.5C 196.831,249.673 196.497,270.673 195.5,291.5C 195.5,270.167 195.5,248.833 195.5,227.5C 200.167,227.5 204.833,227.5 209.5,227.5 Z"/></g>
<g><path style="opacity:1" fill="#fcfcfc" d="M 320.5,228.5 C 326.262,228.149 331.928,228.649 337.5,230C 345.019,238.046 343.686,244.213 333.5,248.5C 329.167,248.5 324.833,248.5 320.5,248.5C 320.5,241.833 320.5,235.167 320.5,228.5 Z"/></g>
<g><path style="opacity:1" fill="#b1b1b1" d="M 416.5,227.5 C 412.366,228.485 408.032,228.818 403.5,228.5C 403.831,250.007 403.497,271.34 402.5,292.5C 402.5,270.833 402.5,249.167 402.5,227.5C 407.167,227.5 411.833,227.5 416.5,227.5 Z"/></g>
<g><path style="opacity:1" fill="#c7c7c7" d="M 320.5,228.5 C 320.5,235.167 320.5,241.833 320.5,248.5C 324.833,248.5 329.167,248.5 333.5,248.5C 329.03,249.486 324.363,249.819 319.5,249.5C 319.175,242.313 319.509,235.313 320.5,228.5 Z"/></g>
<g><path style="opacity:1" fill="#f8f8f8" d="M 252.5,239.5 C 255.806,247.734 259.14,256.067 262.5,264.5C 255.858,265.664 249.192,265.831 242.5,265C 245.978,256.545 249.312,248.045 252.5,239.5 Z"/></g>
</svg>
