<?xml version="1.0" encoding="UTF-8"?>
<!DOCTYPE svg PUBLIC "-//W3C//DTD SVG 1.1//EN" "http://www.w3.org/Graphics/SVG/1.1/DTD/svg11.dtd">
<svg xmlns="http://www.w3.org/2000/svg" version="1.1" width="512px" height="228px" style="shape-rendering:geometricPrecision; text-rendering:geometricPrecision; image-rendering:optimizeQuality; fill-rule:evenodd; clip-rule:evenodd" xmlns:xlink="http://www.w3.org/1999/xlink">
<g><path style="opacity:0.353" fill="#feefc0" d="M 104.5,-0.5 C 205.167,-0.5 305.833,-0.5 406.5,-0.5C 406.5,-0.166667 406.5,0.166667 406.5,0.5C 406.5,0.833333 406.5,1.16667 406.5,1.5C 305.833,1.5 205.167,1.5 104.5,1.5C 104.5,1.16667 104.5,0.833333 104.5,0.5C 104.5,0.166667 104.5,-0.166667 104.5,-0.5 Z"/></g>
<g><path style="opacity:1" fill="#ffc611" d="M 104.5,1.5 C 205.167,1.5 305.833,1.5 406.5,1.5C 425.915,2.85051 443.915,8.51717 460.5,18.5C 460.973,19.9063 461.973,20.573 463.5,20.5C 464.262,22.2624 465.596,23.2624 467.5,23.5C 468.585,25.5869 470.251,26.9202 472.5,27.5C 475.833,31.5 479.5,35.1667 483.5,38.5C 484.419,41.0892 486.086,43.0892 488.5,44.5C 488.738,46.4044 489.738,47.7377 491.5,48.5C 491.427,50.0269 492.094,51.0269 493.5,51.5C 493.427,53.0269 494.094,54.0269 495.5,54.5C 496.338,54.8417 496.672,55.5084 496.5,56.5C 496.427,58.0269 497.094,59.0269 498.5,59.5C 502.239,65.6586 504.906,72.3253 506.5,79.5C 506.41,82.1522 507.076,84.4855 508.5,86.5C 509.607,90.1424 510.607,93.8091 511.5,97.5C 511.5,107.833 511.5,118.167 511.5,128.5C 501.249,181.586 469.582,213.753 416.5,225C 312.519,226.645 208.519,226.978 104.5,226C 82.0167,224.678 62.0167,217.178 44.5,203.5C 43.7377,201.738 42.4044,200.738 40.5,200.5C 17.557,181.865 3.89034,157.865 -0.5,128.5C -0.5,118.167 -0.5,107.833 -0.5,97.5C 0.393406,93.8091 1.39341,90.1424 2.5,86.5C 3.92381,84.4855 4.59047,82.1522 4.5,79.5C 6.09406,72.3253 8.76073,65.6586 12.5,59.5C 13.9063,59.0269 14.573,58.0269 14.5,56.5C 14.3284,55.5084 14.6618,54.8417 15.5,54.5C 16.9063,54.0269 17.573,53.0269 17.5,51.5C 18.9063,51.0269 19.573,50.0269 19.5,48.5C 21.2624,47.7377 22.2624,46.4044 22.5,44.5C 24.914,43.0892 26.5806,41.0892 27.5,38.5C 31.1667,35.5 34.5,32.1667 37.5,28.5C 51.6129,16.9422 67.6129,8.77554 85.5,4C 91.7545,2.5129 98.0878,1.67956 104.5,1.5 Z"/></g>
<g><path style="opacity:0.098" fill="#f8f1de" d="M 406.5,1.5 C 406.5,1.16667 406.5,0.833333 406.5,0.5C 426.41,1.13675 444.41,7.13675 460.5,18.5C 443.915,8.51717 425.915,2.85051 406.5,1.5 Z"/></g>
<g><path style="opacity:0.051" fill="#f7f2e3" d="M 104.5,0.5 C 104.5,0.833333 104.5,1.16667 104.5,1.5C 98.0878,1.67956 91.7545,2.5129 85.5,4C 67.6129,8.77554 51.6129,16.9422 37.5,28.5C 56.265,11.0119 78.5983,1.67855 104.5,0.5 Z"/></g>
<g><path style="opacity:0.016" fill="#fbf7e9" d="M 460.5,18.5 C 462.027,18.427 463.027,19.0937 463.5,20.5C 461.973,20.573 460.973,19.9063 460.5,18.5 Z"/></g>
<g><path style="opacity:0.035" fill="#f9f3e2" d="M 463.5,20.5 C 465.404,20.7376 466.738,21.7376 467.5,23.5C 465.596,23.2624 464.262,22.2624 463.5,20.5 Z"/></g>
<g><path style="opacity:0.008" fill="#fcf4df" d="M 467.5,23.5 C 469.749,24.0798 471.415,25.4131 472.5,27.5C 470.251,26.9202 468.585,25.5869 467.5,23.5 Z"/></g>
<g><path style="opacity:0.004" fill="#fdf8e9" d="M 472.5,27.5 C 477.167,30.1667 480.833,33.8333 483.5,38.5C 479.5,35.1667 475.833,31.5 472.5,27.5 Z"/></g>
<g><path style="opacity:1" fill="#fefefe" d="M 98.5,32.5 C 201.834,32.3333 305.167,32.5 408.5,33C 439.917,37.6279 462.084,54.4612 475,83.5C 486.506,119.309 478.673,150.142 451.5,176C 438.933,186.114 424.599,192.114 408.5,194C 305.167,194.667 201.833,194.667 98.5,194C 51.9994,181.822 29.4994,151.655 31,103.5C 38.3626,65.3069 60.8626,41.6402 98.5,32.5 Z"/></g>
<g><path style="opacity:0.192" fill="#fef7e3" d="M 37.5,28.5 C 34.5,32.1667 31.1667,35.5 27.5,38.5C 29.8333,34.1667 33.1667,30.8333 37.5,28.5 Z"/></g>
<g><path style="opacity:0.231" fill="#ffefc5" d="M 27.5,38.5 C 26.5806,41.0892 24.914,43.0892 22.5,44.5C 23.4194,41.9108 25.086,39.9108 27.5,38.5 Z"/></g>
<g><path style="opacity:0.129" fill="#fff2ce" d="M 483.5,38.5 C 485.914,39.9108 487.581,41.9108 488.5,44.5C 486.086,43.0892 484.419,41.0892 483.5,38.5 Z"/></g>
<g><path style="opacity:0.278" fill="#fff2ca" d="M 22.5,44.5 C 22.2624,46.4044 21.2624,47.7377 19.5,48.5C 19.7376,46.5956 20.7376,45.2623 22.5,44.5 Z"/></g>
<g><path style="opacity:0.286" fill="#fff2ca" d="M 488.5,44.5 C 490.262,45.2623 491.262,46.5956 491.5,48.5C 489.738,47.7377 488.738,46.4044 488.5,44.5 Z"/></g>
<g><path style="opacity:0.153" fill="#fef4d6" d="M 19.5,48.5 C 19.573,50.0269 18.9063,51.0269 17.5,51.5C 17.427,49.9731 18.0937,48.9731 19.5,48.5 Z"/></g>
<g><path style="opacity:0.145" fill="#fef4d6" d="M 491.5,48.5 C 492.906,48.9731 493.573,49.9731 493.5,51.5C 492.094,51.0269 491.427,50.0269 491.5,48.5 Z"/></g>
<g><path style="opacity:0.118" fill="#fef6db" d="M 17.5,51.5 C 17.573,53.0269 16.9063,54.0269 15.5,54.5C 15.427,52.9731 16.0937,51.9731 17.5,51.5 Z"/></g>
<g><path style="opacity:0.106" fill="#fef5dc" d="M 493.5,51.5 C 494.906,51.9731 495.573,52.9731 495.5,54.5C 494.094,54.0269 493.427,53.0269 493.5,51.5 Z"/></g>
<g><path style="opacity:0.078" fill="#fef5de" d="M 14.5,56.5 C 14.573,58.0269 13.9063,59.0269 12.5,59.5C 12.427,57.9731 13.0937,56.9731 14.5,56.5 Z"/></g>
<g><path style="opacity:0.078" fill="#fff6df" d="M 496.5,56.5 C 497.906,56.9731 498.573,57.9731 498.5,59.5C 497.094,59.0269 496.427,58.0269 496.5,56.5 Z"/></g>
<g><path style="opacity:1" fill="#6e616c" d="M 113.5,70.5 C 126.397,69.8531 137.563,73.8531 147,82.5C 147.861,88.4703 145.361,92.1369 139.5,93.5C 134.805,90.8237 129.805,88.657 124.5,87C 120.833,86.3333 117.167,86.3333 113.5,87C 108.178,89.9225 107.178,93.9225 110.5,99C 119.167,102.667 127.833,106.333 136.5,110C 150.005,118.244 153.172,129.411 146,143.5C 135.385,156.114 122.218,159.614 106.5,154C 100.171,151.335 94.6715,147.502 90,142.5C 87.2561,136.324 89.0894,132.324 95.5,130.5C 98.0278,130.763 100.361,131.596 102.5,133C 109.831,140.453 118.498,142.453 128.5,139C 134.58,135.413 135.58,130.913 131.5,125.5C 121.649,120.743 111.649,116.243 101.5,112C 90.0778,100.573 89.7445,88.9068 100.5,77C 104.398,73.7687 108.731,71.6021 113.5,70.5 Z"/></g>
<g><path style="opacity:1" fill="#6d5f6a" d="M 209.5,85.5 C 204.833,85.5 200.167,85.5 195.5,85.5C 195.5,106.833 195.5,128.167 195.5,149.5C 193.638,155.93 189.638,157.763 183.5,155C 182.299,154.097 181.465,152.931 181,151.5C 180.5,129.836 180.333,108.169 180.5,86.5C 175.821,86.6658 171.155,86.4992 166.5,86C 161.931,83.4586 160.431,79.6253 162,74.5C 163.167,73.3333 164.333,72.1667 165.5,71C 180.167,70.3333 194.833,70.3333 209.5,71C 217.408,75.9221 217.408,80.7555 209.5,85.5 Z"/></g>
<g><path style="opacity:1" fill="#6e616b" d="M 249.5,70.5 C 254.347,69.8404 258.181,71.5071 261,75.5C 269.863,98.4223 278.53,121.422 287,144.5C 288.82,152.669 285.653,156.502 277.5,156C 276.069,155.535 274.903,154.701 274,153.5C 272.358,148.903 270.524,144.403 268.5,140C 257.833,139.333 247.167,139.333 236.5,140C 234.546,145.205 232.213,150.205 229.5,155C 224.498,157.601 220.665,156.434 218,151.5C 217.299,148.072 217.632,144.738 219,141.5C 227.471,119.088 236.137,96.7547 245,74.5C 246.397,72.9297 247.897,71.5964 249.5,70.5 Z"/></g>
<g><path style="opacity:1" fill="#6d5f6a" d="M 309.5,70.5 C 319.233,70.1091 328.9,70.6091 338.5,72C 355.218,78.6035 360.718,90.4368 355,107.5C 351.158,114.843 345.325,119.843 337.5,122.5C 343.481,129.648 349.647,136.648 356,143.5C 359.007,153.489 355.507,157.323 345.5,155C 337.352,145.217 328.852,135.717 320,126.5C 319.945,135.601 319.278,144.601 318,153.5C 314,157.5 310,157.5 306,153.5C 304.352,127.254 304.018,100.92 305,74.5C 306.397,72.9297 307.897,71.5964 309.5,70.5 Z"/></g>
<g><path style="opacity:1" fill="#6d5f6a" d="M 416.5,85.5 C 411.833,85.5 407.167,85.5 402.5,85.5C 402.5,107.167 402.5,128.833 402.5,150.5C 400.098,156.199 396.098,157.699 390.5,155C 389.107,153.829 388.273,152.329 388,150.5C 387.5,129.169 387.333,107.836 387.5,86.5C 382.821,86.6658 378.155,86.4992 373.5,86C 368.931,83.4586 367.431,79.6253 369,74.5C 370.167,73.3333 371.333,72.1667 372.5,71C 387.167,70.3333 401.833,70.3333 416.5,71C 422.331,73.1717 423.831,77.005 421,82.5C 419.871,84.1412 418.371,85.1412 416.5,85.5 Z"/></g>
<g><path style="opacity:0.808" fill="#ffe491" d="M 4.5,79.5 C 4.59047,82.1522 3.92381,84.4855 2.5,86.5C 2.40953,83.8478 3.07619,81.5145 4.5,79.5 Z"/></g>
<g><path style="opacity:0.796" fill="#ffe593" d="M 506.5,79.5 C 507.924,81.5145 508.59,83.8478 508.5,86.5C 507.076,84.4855 506.41,82.1522 506.5,79.5 Z"/></g>
<g><path style="opacity:1" fill="#c9c4c8" d="M 209.5,85.5 C 205.366,86.4849 201.032,86.8182 196.5,86.5C 196.831,107.673 196.497,128.673 195.5,149.5C 195.5,128.167 195.5,106.833 195.5,85.5C 200.167,85.5 204.833,85.5 209.5,85.5 Z"/></g>
<g><path style="opacity:1" fill="#fcfcfc" d="M 332.5,86.5 C 341.066,88.3025 343.9,93.3025 341,101.5C 339.143,104.2 336.643,105.866 333.5,106.5C 329.167,106.5 324.833,106.5 320.5,106.5C 320.5,99.8333 320.5,93.1667 320.5,86.5C 324.5,86.5 328.5,86.5 332.5,86.5 Z"/></g>
<g><path style="opacity:1" fill="#c0babe" d="M 416.5,85.5 C 412.366,86.4849 408.032,86.8182 403.5,86.5C 403.831,108.007 403.497,129.34 402.5,150.5C 402.5,128.833 402.5,107.167 402.5,85.5C 407.167,85.5 411.833,85.5 416.5,85.5 Z"/></g>
<g><path style="opacity:1" fill="#c5c0c4" d="M 332.5,86.5 C 328.5,86.5 324.5,86.5 320.5,86.5C 320.5,93.1667 320.5,99.8333 320.5,106.5C 324.833,106.5 329.167,106.5 333.5,106.5C 329.03,107.486 324.363,107.819 319.5,107.5C 319.5,100.167 319.5,92.8333 319.5,85.5C 324.032,85.1818 328.366,85.5151 332.5,86.5 Z"/></g>
<g><path style="opacity:1" fill="#f8f7f8" d="M 252.5,97.5 C 255.806,105.734 259.14,114.067 262.5,122.5C 255.833,123.833 249.167,123.833 242.5,122.5C 245.841,114.138 249.174,105.805 252.5,97.5 Z"/></g>
<g><path style="opacity:0.769" fill="#ffe497" d="M 40.5,200.5 C 42.4044,200.738 43.7377,201.738 44.5,203.5C 42.5956,203.262 41.2623,202.262 40.5,200.5 Z"/></g>
</svg>
