<?xml version="1.0" encoding="UTF-8"?>
<svg version="1.1" xmlns="http://www.w3.org/2000/svg" width="512" height="512">
<path d="M0 0 C3.80429188 2.0428775 5.86278106 5.48211883 7.3125 9.4375 C7.90565336 14.09964221 7.85316946 18.7520071 7.82043457 23.44360352 C7.82504627 24.88009301 7.831401 26.31657778 7.83934355 27.75305271 C7.85602324 31.69159962 7.84779686 35.62975824 7.83539867 39.56830645 C7.82634488 43.8192357 7.84031954 48.07009839 7.85131836 52.3210144 C7.86910466 60.64506788 7.86526311 68.96897709 7.8536678 77.29303622 C7.84463419 84.05817267 7.84340916 90.82326868 7.84776306 97.58840942 C7.84837599 98.55126565 7.84898893 99.51412187 7.84962043 100.50615555 C7.85089933 102.46218071 7.85219619 104.41820585 7.8535108 106.37423098 C7.86491692 124.71580997 7.85180238 143.057309 7.83030933 161.39887488 C7.81243832 177.13672486 7.81554242 192.87445683 7.83398438 208.61230469 C7.85539051 226.88825772 7.86381828 245.16414067 7.85153532 263.44010448 C7.85026112 265.38893317 7.84900364 267.33776187 7.84776306 269.28659058 C7.84683741 270.72488129 7.84683741 270.72488129 7.84589306 272.19222838 C7.84243939 278.94922446 7.84826887 285.70617609 7.85768127 292.46316528 C7.86889977 300.69772355 7.86586435 308.93212929 7.8445583 317.16667008 C7.83404586 321.36807414 7.82992928 325.5692239 7.84315491 329.77062607 C7.85508076 333.61730354 7.84851347 337.46349119 7.8272447 341.31012428 C7.82277941 342.70100797 7.82504336 344.09193311 7.83474785 345.48279011 C7.88266845 352.92191988 7.91280275 358.39687148 3.3125 364.4375 C1.63671875 365.99609375 1.63671875 365.99609375 0 366.875 C-0.53238281 367.18308594 -1.06476563 367.49117188 -1.61328125 367.80859375 C-7.50260506 369.5942456 -12.0488358 368.19520051 -17.3203125 365.421875 C-18.22597458 364.94859772 -18.22597458 364.94859772 -19.14993286 364.46575928 C-25.44151461 361.13207803 -31.51322684 357.4390114 -37.5625 353.6875 C-40.0136718 352.18040107 -42.46768276 350.67795536 -44.921875 349.17578125 C-45.55235748 348.78926895 -46.18283997 348.40275665 -46.83242798 348.00453186 C-53.44108647 343.96052327 -60.10804707 340.01660168 -66.77886963 336.07629395 C-78.18770791 329.33693337 -89.52157865 322.49728247 -100.78564453 315.51782227 C-113.99678548 307.35474935 -127.29774623 299.25575906 -140.80987549 291.59877014 C-142.6875 290.4375 -142.6875 290.4375 -144.63299561 288.8669281 C-153.21179246 282.49563727 -162.94588928 283.6379239 -173.140625 283.73828125 C-175.1297889 283.73464291 -177.11894933 283.72793409 -179.10809326 283.7183075 C-184.32062967 283.69931279 -189.53249636 283.71320962 -194.74499512 283.73681641 C-203.10046023 283.77132068 -211.45576315 283.76538834 -219.81124115 283.7406826 C-222.72182541 283.73831685 -225.631791 283.75608944 -228.54229736 283.7759552 C-230.32930505 283.77620336 -232.11631298 283.77580563 -233.90332031 283.7746582 C-234.70760468 283.78551956 -235.51188904 283.79638092 -236.34054565 283.80757141 C-241.19411075 283.78258088 -244.47214516 283.09951764 -248.6875 280.4375 C-253.11426537 275.5321654 -253.81340151 272.96241046 -253.83467102 266.40386963 C-253.83834771 265.67135475 -253.8420244 264.93883987 -253.8458125 264.18412757 C-253.85687124 261.71682024 -253.86069688 259.24955499 -253.86450195 256.78222656 C-253.87076497 255.01828883 -253.87741162 253.25435243 -253.88441467 251.49041748 C-253.90183981 246.68863789 -253.91238063 241.88686827 -253.9206202 237.08506489 C-253.92576731 234.08624663 -253.93184318 231.08743148 -253.93813133 228.08861542 C-253.95718791 218.70949312 -253.97141787 209.33037872 -253.9797433 199.95124078 C-253.98951747 189.11825152 -254.01583975 178.2854665 -254.05624419 167.45254922 C-254.08638811 159.08390511 -254.10121055 150.71531959 -254.10452431 142.34662223 C-254.10687684 137.34632805 -254.11586344 132.34625195 -254.14098549 127.34601593 C-254.16424095 122.64117717 -254.16850963 117.93670045 -254.15822411 113.23181915 C-254.15772801 111.50566403 -254.16407007 109.77949125 -254.17778015 108.0533905 C-254.19546423 105.69484754 -254.1884111 103.33760873 -254.17524719 100.97906494 C-254.17763555 99.65981144 -254.1800239 98.34055794 -254.18248463 96.98132706 C-253.48886663 92.01539054 -251.35746737 88.90504708 -247.625 85.625 C-243.37202683 83.01833902 -239.34373498 83.37391779 -234.54541016 83.50195312 C-232.82013644 83.53806389 -231.09484426 83.57329979 -229.36953735 83.60778809 C-227.9932057 83.6366938 -227.9932057 83.6366938 -226.58906937 83.66618347 C-220.63999711 83.7754311 -214.68990353 83.80519008 -208.74003029 83.84502411 C-203.54564284 83.8841366 -198.35533295 83.95285577 -193.16259766 84.09228516 C-167.05574503 84.76554802 -148.09156255 83.74448576 -126.76759338 67.68161011 C-121.37811589 63.75491718 -115.61094867 60.45269229 -109.875 57.0625 C-108.5765803 56.27524096 -107.27949426 55.48576682 -105.98510742 54.69189453 C-97.26136905 49.36862952 -88.48244716 44.14207517 -79.6875 38.9375 C-69.40177036 32.84951566 -59.14767617 26.71391622 -48.9375 20.5 C-47.78247418 19.79743894 -46.62744493 19.09488352 -45.47241211 18.39233398 C-43.26324197 17.04818587 -41.05417279 15.7038718 -38.84521484 14.359375 C-33.98361079 11.4004646 -29.120649 8.44400256 -24.25 5.5 C-23.44530273 5.00959229 -22.64060547 4.51918457 -21.81152344 4.01391602 C-14.77437708 -0.22933937 -8.13064038 -4.05661501 0 0 Z M-30.8984375 43.99609375 C-31.52932281 44.37133682 -32.16020813 44.7465799 -32.81021118 45.13319397 C-34.89694679 46.3760966 -36.97974445 47.62544119 -39.0625 48.875 C-40.52197497 49.74636255 -41.98161232 50.61745317 -43.44140625 51.48828125 C-53.69209727 57.61072637 -63.90060829 63.80159357 -74.09643555 70.01489258 C-84.32276397 76.24150976 -94.61348022 82.35740006 -104.91723633 88.45483398 C-111.32385715 92.24709362 -117.72251697 96.05085585 -124.09375 99.90234375 C-124.965476 100.4286438 -124.965476 100.4286438 -125.85481262 100.96557617 C-128.56835816 102.60418329 -131.27960016 104.2463722 -133.98706055 105.89501953 C-134.93363525 106.46720215 -135.88020996 107.03938477 -136.85546875 107.62890625 C-137.67297607 108.12592041 -138.4904834 108.62293457 -139.33276367 109.13500977 C-144.41673852 111.94714101 -148.63606352 112.73873495 -154.4152832 112.75634766 C-155.18903636 112.76650091 -155.96278952 112.77665417 -156.75998974 112.7871151 C-159.25274913 112.81763414 -161.74539498 112.83487365 -164.23828125 112.8515625 C-165.78203301 112.86850618 -167.32577542 112.88632383 -168.86950684 112.9050293 C-174.5795641 112.9681051 -180.28979791 113.01428564 -186 113.0625 C-198.766875 113.18625 -211.53375 113.31 -224.6875 113.4375 C-224.6875 159.6375 -224.6875 205.8375 -224.6875 253.4375 C-199.64816898 253.48935338 -199.64816898 253.48935338 -174.60888672 253.46508789 C-169.72094727 253.49694824 -169.72094727 253.49694824 -167.41897583 253.52073669 C-165.84128619 253.53062013 -164.26347251 253.52713569 -162.68582153 253.51231384 C-150.81723151 253.41442811 -142.88084475 255.17920063 -132.6875 261.4375 C-131.0171167 262.41490898 -131.0171167 262.41490898 -129.31298828 263.4120636 C-126.11650401 265.29172243 -122.96386548 267.23320798 -119.8125 269.1875 C-117.35871471 270.69588604 -114.90207533 272.19959469 -112.4453125 273.703125 C-111.81441711 274.08984375 -111.18352173 274.4765625 -110.5335083 274.875 C-103.29590264 279.30399281 -95.99152933 283.61929535 -88.6875 287.9375 C-78.40108987 294.02432135 -68.14778401 300.16129473 -57.9375 306.375 C-56.78467656 307.07610462 -55.63184465 307.77719532 -54.47900391 308.47827148 C-50.17551069 311.09630799 -45.87253615 313.71518872 -41.57128906 316.33691406 C-38.73759124 318.06221463 -35.90054696 319.78186609 -33.0625 321.5 C-32.23266602 322.00716553 -31.40283203 322.51433105 -30.54785156 323.03686523 C-29.79729492 323.49005127 -29.04673828 323.9432373 -28.2734375 324.41015625 C-27.29963135 325.00195679 -27.29963135 325.00195679 -26.30615234 325.60571289 C-24.69433206 326.58985334 -24.69433206 326.58985334 -22.6875 326.4375 C-22.6875 232.0575 -22.6875 137.6775 -22.6875 40.4375 C-25.87008525 40.4375 -28.23739542 42.39422628 -30.8984375 43.99609375 Z " fill="#000000" transform="translate(295.6875,72.5625)"/>
<path d="M0 0 C31.73126244 18.65311993 51.88383884 67.12863197 61 101 C61.82344007 104.38221828 62.5597587 107.77574533 63.25 111.1875 C63.40098145 111.93346436 63.55196289 112.67942871 63.70751953 113.44799805 C66.27493222 126.97829185 67.38174861 140.3110534 67.3125 154.0625 C67.31067719 154.82113342 67.30885437 155.57976685 67.30697632 156.36138916 C67.0937201 209.4086996 48.0518609 259.5120145 12.09375 298.671875 C10.26437176 300.70603439 8.56963782 302.79216063 6.875 304.9375 C3.9896065 308.28139439 1.32987032 309.82579788 -3 311 C-8.25373645 311.12659606 -12.85297575 310.41519644 -17 307 C-20.10967444 303.11290695 -21.11372879 298.92824752 -21 294 C-19.42333855 287.91859156 -15.74744119 284.25716174 -11.5234375 279.71875 C15.06825254 251.06887962 31.47543081 214.82711702 36 176 C36.11085938 175.06929687 36.22171875 174.13859375 36.3359375 173.1796875 C41.22604488 124.67510886 25.86606349 75.98128116 -4.5625 38.1875 C-8.49302513 33.47654569 -12.67003884 29.01581271 -16.93359375 24.60546875 C-19.60068117 21.2426194 -20.9182639 18.152384 -21.08203125 13.83984375 C-20.48396957 9.61874172 -19.85791596 6.31887015 -17 3 C-11.67203295 -0.93642742 -6.35725548 -2.09723892 0 0 Z " fill="#000000" transform="translate(403,101)"/>
<path d="M0 0 C23.61201591 15.57388284 37.98880076 49.68523924 43.94140625 76.22265625 C51.49675932 113.12914885 44.93367175 152.90428351 24.9375 184.9375 C6.90318664 212.04889518 6.90318664 212.04889518 -3.0625 214.9375 C-9.49445992 215.55994773 -12.81770466 214.7425476 -18.0625 210.9375 C-21.09217488 207.20090098 -21.81155102 203.70553064 -22.0625 198.9375 C-20.89136225 194.30901411 -19.11048182 191.40025151 -16 187.8125 C7.34380789 160.1221725 18.68025297 129.85091176 15.73535156 93.43798828 C12.85273875 67.36937845 0.58788711 43.87853631 -17.25 24.92578125 C-20.81262869 21.017639 -21.71337649 18.17435268 -22.0625 12.9375 C-20.96392121 6.56574303 -18.4183227 3.36757851 -13.25 -0.375 C-8.60879651 -1.83366395 -4.50429791 -1.5627156 0 0 Z " fill="#000000" transform="translate(356.0625,149.0625)"/>
</svg>
