<?xml version="1.0" encoding="UTF-8"?>
<svg version="1.1" xmlns="http://www.w3.org/2000/svg" width="512" height="512">
<path d="M0 0 C3.70981445 1.64880642 6.33252649 3.95145885 9 7 C9.88951276 9.66853827 10.22066937 11.48541469 10.3125 14.25 C10.34988281 14.97703125 10.38726562 15.7040625 10.42578125 16.453125 C8.97003532 25.16088966 1.31347538 31.07334288 -4.671875 36.96484375 C-5.72056614 38.00793111 -6.76859058 39.05168915 -7.815979 40.09608459 C-10.55807499 42.82679343 -13.30906253 45.5483672 -16.06207275 48.26806641 C-18.87629085 51.05145072 -21.68190592 53.84347787 -24.48828125 56.63476562 C-29.98385651 62.09828506 -35.48886459 67.55217192 -41 73 C-38.33133706 77.04840359 -35.54860337 80.85489384 -32.5 84.625 C-4.09044522 120.98453167 10.54361825 167.16684842 10.3125 213.0625 C10.30976578 214.20045013 10.30976578 214.20045013 10.30697632 215.36138916 C10.0937201 268.4086996 -8.9481391 318.5120145 -44.90625 357.671875 C-46.73562824 359.70603439 -48.43036218 361.79216063 -50.125 363.9375 C-53.0103935 367.28139439 -55.67012968 368.82579788 -60 370 C-65.25373645 370.12659606 -69.85297575 369.41519644 -74 366 C-77.10967444 362.11290695 -78.11372879 357.92824752 -78 353 C-76.42333855 346.91859156 -72.74744119 343.25716174 -68.5234375 338.71875 C-41.93174746 310.06887962 -25.52456919 273.82711702 -21 235 C-20.88914062 234.06929687 -20.77828125 233.13859375 -20.6640625 232.1796875 C-17.00204077 195.85639091 -24.6310339 159.02004998 -42 127 C-42.61488281 125.83210938 -43.22976563 124.66421875 -43.86328125 123.4609375 C-47.57180712 116.65813436 -51.72244424 110.35929608 -56.3125 104.125 C-56.82844727 103.41601562 -57.34439453 102.70703125 -57.87597656 101.9765625 C-59.17462388 100.25753887 -60.57981533 98.62006252 -62 97 C-65.18290822 96.6726549 -65.18290822 96.6726549 -67.54370117 99.203125 C-68.55118515 100.21108431 -69.55044193 101.22730922 -70.54296875 102.25 C-71.07142899 102.78270508 -71.59988922 103.31541016 -72.1443634 103.86425781 C-73.83256735 105.56927029 -75.51005145 107.28441127 -77.1875 109 C-78.32938778 110.15693178 -79.47195776 111.31319065 -80.61523438 112.46875 C-83.41813541 115.30474911 -86.2114652 118.14987676 -89 121 C-88.05966919 122.66216553 -88.05966919 122.66216553 -87.1003418 124.35791016 C-86.74771774 124.98122223 -86.39509369 125.6045343 -86.03178406 126.24673462 C-84.76276811 128.40311775 -83.31672724 130.37679196 -81.8125 132.375 C-59.58438665 164.10230709 -53.18724117 203.53168418 -59.37890625 241.31201172 C-63.46431433 263.48923298 -72.8314965 285.41678523 -87 303 C-87.43634766 303.54172852 -87.87269531 304.08345703 -88.32226562 304.64160156 C-89.74500295 306.39591737 -91.18112699 308.1380467 -92.625 309.875 C-93.06827637 310.41092773 -93.51155273 310.94685547 -93.96826172 311.49902344 C-98.73374498 317.11189947 -103.06223002 321.6718525 -110.75 322.3125 C-115.51797502 322.24225359 -118.15259886 320.7912518 -122 318 C-125.02967488 314.26340098 -125.74905102 310.76803064 -126 306 C-124.82886225 301.37151411 -123.04798182 298.46275151 -119.9375 294.875 C-96.69541307 267.30533348 -85.12514001 236.9219591 -88.20214844 200.61474609 C-90.62021367 180.08856593 -98.76908086 160.57300291 -111 144 C-111.97135895 144.88038437 -112.9427179 145.76076874 -113.94351196 146.66783142 C-116.58680696 148.93944195 -119.22085379 150.81619676 -122.24130249 152.55177307 C-136.91291454 161.05621807 -151.99072676 173.36252446 -156.64969063 190.37195873 C-162.84804863 218.97807813 -159.93850461 250.39346161 -158.95623279 279.41764796 C-158.52585129 292.32474746 -158.33293596 305.23390454 -158.1484375 318.14648438 C-158.08345494 322.68211369 -158.01748222 327.21772493 -157.94955444 331.75331116 C-157.93322979 332.85120502 -157.91690514 333.94909887 -157.90008581 335.08026224 C-157.7974669 341.57625685 -157.65030616 348.06934828 -157.46027398 354.56336772 C-157.3429351 358.58304824 -157.23940079 362.60303812 -157.1363163 366.623106 C-157.08419973 368.4829296 -157.02469757 370.34256334 -156.95721626 372.20189285 C-156.86523009 374.74150019 -156.79836436 377.28065405 -156.73672485 379.82115173 C-156.70304389 380.55303095 -156.66936292 381.28491017 -156.63466132 382.03896755 C-156.53798076 387.58141458 -157.97880534 390.53503041 -161 395 C-162.67578125 396.55859375 -162.67578125 396.55859375 -164.3125 397.4375 C-164.84488281 397.74558594 -165.37726563 398.05367188 -165.92578125 398.37109375 C-171.81510506 400.1567456 -176.3613358 398.75770051 -181.6328125 395.984375 C-182.53847458 395.51109772 -182.53847458 395.51109772 -183.46243286 395.02825928 C-189.75402021 391.69457506 -195.82567509 388.00143647 -201.875 384.25 C-204.32878529 382.74161396 -206.78542467 381.23790531 -209.2421875 379.734375 C-209.87308289 379.34765625 -210.50397827 378.9609375 -211.1539917 378.5625 C-218.39160023 374.13350543 -225.69604808 369.81834014 -233 365.5 C-247.73581843 356.77896474 -262.38511419 347.92206625 -277 339 C-277.97420898 338.40558105 -278.94841797 337.81116211 -279.95214844 337.19873047 C-284.97043429 334.13629386 -289.98657671 331.07039019 -295 328 C-300.66628716 332.70868035 -305.87182198 337.75317105 -311.05297852 342.98706055 C-311.93193787 343.87069275 -312.81089722 344.75432495 -313.7164917 345.66473389 C-315.61524534 347.57394933 -317.51308636 349.48402571 -319.40954781 351.39551353 C-322.41153069 354.4207196 -325.41852876 357.44090731 -328.42649841 360.4601593 C-336.97481866 369.0417857 -345.51885107 377.62764975 -354.05249023 386.22387695 C-358.7754681 390.98140999 -363.50381279 395.7335401 -368.23816246 400.47975761 C-371.22726145 403.47693365 -374.20968458 406.4805474 -377.18731511 409.48911512 C-379.47758687 411.79919808 -381.77775077 414.09939657 -384.07641602 416.40112305 C-385.30393837 417.64718071 -385.30393837 417.64718071 -386.55625916 418.91841125 C-394.99699718 427.32954633 -394.99699718 427.32954633 -401.37890625 428.3984375 C-407.48534041 428.33289438 -410.62833296 427.10814848 -415.25 423 C-417.78506573 420.10278202 -418.18864357 417.47873035 -418.3125 413.75 C-418.34988281 413.02296875 -418.38726562 412.2959375 -418.42578125 411.546875 C-417.26451277 404.60057177 -412.1153109 399.68389385 -407.31164837 394.93412495 C-406.63715744 394.2552737 -405.96266651 393.57642245 -405.26773646 392.87699994 C-403.00436993 390.60267976 -400.7304683 388.33919866 -398.45646667 386.07551575 C-396.81569659 384.43128917 -395.17558109 382.78640917 -393.53606492 381.14093226 C-389.50019732 377.09383876 -385.45739041 373.05377326 -381.41159085 369.01661049 C-376.5649539 364.1795429 -371.72704179 359.33378434 -366.88936968 354.48775358 C-357.41079381 344.99338047 -347.92364987 335.50760573 -338.43284154 326.02546218 C-330.127316 317.72748211 -321.82458282 309.42672078 -313.52462196 301.12317467 C-312.97414678 300.57247033 -312.42367159 300.02176598 -311.85651534 299.45437363 C-309.62198136 297.21890565 -307.38745799 294.98342707 -305.15295206 292.74793106 C-284.18981838 271.77561956 -263.21794418 250.81206788 -242.24215008 229.85241977 C-223.60484424 211.22935084 -204.97530917 192.59854189 -186.35229492 173.96118164 C-165.43104969 153.02387391 -144.50496782 132.09141987 -123.57105428 111.16677779 C-121.33963509 108.93632075 -119.10822771 106.7058519 -116.87682533 104.47537804 C-116.05267144 103.65157999 -116.05267144 103.65157999 -115.21186797 102.81113956 C-106.91345244 94.51613702 -98.6187458 86.21743791 -90.32582664 77.91694069 C-80.89676485 68.47930562 -71.46236875 59.04703991 -62.02087995 49.62183622 C-57.20207341 44.81106735 -52.38566207 39.99796025 -47.57601929 35.17802811 C-43.17515001 30.76823661 -38.76744608 26.36540033 -34.35412756 21.96806904 C-32.75663112 20.37393085 -31.16167266 18.77724455 -29.56948747 17.17780159 C-27.40845198 15.00767056 -25.23842465 12.84694674 -23.06587505 10.68835163 C-22.44687805 10.06233113 -21.82788105 9.43631063 -21.19012657 8.79131982 C-14.94797583 2.62928105 -9.06722729 -1.41728788 0 0 Z M-189.4661417 220.34309387 C-190.41604937 221.29438423 -190.41604937 221.29438423 -191.38514709 222.26489258 C-192.11013901 222.98850983 -192.83513092 223.71212708 -193.58209229 224.45767212 C-194.78294464 225.66391739 -194.78294464 225.66391739 -196.00805664 226.89453125 C-196.84700974 227.73333832 -197.68596283 228.57214539 -198.55033875 229.43637085 C-200.85780321 231.74441445 -203.16302693 234.05466884 -205.46729589 236.36590195 C-207.8731821 238.77802054 -210.28188233 241.18732564 -212.69029236 243.59692383 C-217.25383992 248.16358505 -221.81483144 252.73279042 -226.37492222 257.30290318 C-231.56514287 262.50428389 -236.7581882 267.70284048 -241.95147908 272.90115547 C-252.63747739 283.59761896 -263.31990265 294.29764433 -274 305 C-270.30668451 308.00666047 -266.60714834 310.53645559 -262.49609375 312.94921875 C-261.86890945 313.31911926 -261.24172516 313.68901978 -260.59553528 314.07012939 C-259.24705519 314.86509036 -257.89759265 315.65838675 -256.54724121 316.45016479 C-252.936672 318.56771569 -249.33382844 320.69833662 -245.73046875 322.828125 C-244.99716339 323.26120468 -244.26385803 323.69428436 -243.5083313 324.14048767 C-236.38826169 328.35061707 -229.31413694 332.63438579 -222.25 336.9375 C-221.09909252 337.63761936 -219.94813276 338.3376528 -218.79711914 339.03759766 C-214.49165239 341.65652508 -210.18687121 344.2765702 -205.88378906 346.89941406 C-203.05009124 348.62471463 -200.21304696 350.34436609 -197.375 352.0625 C-196.54516602 352.56966553 -195.71533203 353.07683105 -194.86035156 353.59936523 C-194.10979492 354.05255127 -193.35923828 354.5057373 -192.5859375 354.97265625 C-191.61213135 355.56445679 -191.61213135 355.56445679 -190.61865234 356.16821289 C-189.00683206 357.15235334 -189.00683206 357.15235334 -187 357 C-187 311.46 -187 265.92 -187 219 C-188.20849371 218.88741883 -188.20849371 218.88741883 -189.4661417 220.34309387 Z " fill="#000000" transform="translate(460,42)"/>
<path d="M0 0 C3.79279242 2.03670237 5.73714492 5.55876487 7.3125 9.4375 C9.14240673 18.46080129 9.08541427 27.95014304 9.3125 37.125 C9.36419342 39.09095123 9.36419342 39.09095123 9.41693115 41.09661865 C9.62050471 55.72534725 9.35087212 68.23739677 -0.70880127 79.57090759 C-6.66439142 85.65003573 -13.35293075 91.11152522 -20.6875 95.4375 C-21.3475 95.4375 -22.0075 95.4375 -22.6875 95.4375 C-22.6875 77.2875 -22.6875 59.1375 -22.6875 40.4375 C-37.60188661 49.13755886 -52.47931129 57.8664926 -67.21740723 66.86056519 C-77.33162883 73.03116664 -87.50380548 79.09902137 -97.70251465 85.12884521 C-105.05951717 89.47929648 -112.39983673 93.85304608 -119.69140625 98.3125 C-120.65462296 98.90097717 -120.65462296 98.90097717 -121.63729858 99.50134277 C-124.67699102 101.35960391 -127.71317457 103.22324348 -130.74414062 105.09570312 C-131.81986328 105.75505859 -132.89558594 106.41441406 -134.00390625 107.09375 C-134.93662354 107.66931641 -135.86934082 108.24488281 -136.83032227 108.83789062 C-142.97141026 112.27601833 -147.56922953 113.88628944 -154.64233398 113.77807617 C-155.80332532 113.77861858 -155.80332532 113.77861858 -156.98777103 113.77917194 C-159.46998374 113.77694944 -161.95150344 113.75418168 -164.43359375 113.73046875 C-165.9752978 113.72605271 -167.51700636 113.72299537 -169.05871582 113.72131348 C-174.74754623 113.70564488 -180.43628007 113.663761 -186.125 113.625 C-198.850625 113.563125 -211.57625 113.50125 -224.6875 113.4375 C-224.6875 159.6375 -224.6875 205.8375 -224.6875 253.4375 C-210.1675 253.4375 -195.6475 253.4375 -180.6875 253.4375 C-186.25677546 264.57605091 -198.75652326 280.03871167 -210.88696289 284.19024658 C-222.40750916 286.78333254 -238.43826632 286.4526696 -248.6875 280.4375 C-253.11426537 275.5321654 -253.81340151 272.96241046 -253.83467102 266.40386963 C-253.83834771 265.67135475 -253.8420244 264.93883987 -253.8458125 264.18412757 C-253.85687124 261.71682024 -253.86069688 259.24955499 -253.86450195 256.78222656 C-253.87076497 255.01828883 -253.87741162 253.25435243 -253.88441467 251.49041748 C-253.90183981 246.68863789 -253.91238063 241.88686827 -253.9206202 237.08506489 C-253.92576731 234.08624663 -253.93184318 231.08743148 -253.93813133 228.08861542 C-253.95718791 218.70949312 -253.97141787 209.33037872 -253.9797433 199.95124078 C-253.98951747 189.11825152 -254.01583975 178.2854665 -254.05624419 167.45254922 C-254.08638811 159.08390511 -254.10121055 150.71531959 -254.10452431 142.34662223 C-254.10687684 137.34632805 -254.11586344 132.34625195 -254.14098549 127.34601593 C-254.16424095 122.64117717 -254.16850963 117.93670045 -254.15822411 113.23181915 C-254.15772801 111.50566403 -254.16407007 109.77949125 -254.17778015 108.0533905 C-254.19546423 105.69484754 -254.1884111 103.33760873 -254.17524719 100.97906494 C-254.17763555 99.65981144 -254.1800239 98.34055794 -254.18248463 96.98132706 C-253.48886663 92.01539054 -251.35746737 88.90504708 -247.625 85.625 C-243.37202683 83.01833902 -239.34373498 83.37391779 -234.54541016 83.50195312 C-232.82013644 83.53806389 -231.09484426 83.57329979 -229.36953735 83.60778809 C-227.9932057 83.6366938 -227.9932057 83.6366938 -226.58906937 83.66618347 C-220.63999711 83.7754311 -214.68990353 83.80519008 -208.74003029 83.84502411 C-203.54564284 83.8841366 -198.35533295 83.95285577 -193.16259766 84.09228516 C-167.05574503 84.76554802 -148.09156255 83.74448576 -126.76759338 67.68161011 C-121.37811589 63.75491718 -115.61094867 60.45269229 -109.875 57.0625 C-108.5765803 56.27524096 -107.27949426 55.48576682 -105.98510742 54.69189453 C-97.26136905 49.36862952 -88.48244716 44.14207517 -79.6875 38.9375 C-69.40177036 32.84951566 -59.14767617 26.71391622 -48.9375 20.5 C-47.78247418 19.79743894 -46.62744493 19.09488352 -45.47241211 18.39233398 C-43.26324197 17.04818587 -41.05417279 15.7038718 -38.84521484 14.359375 C-33.98361079 11.4004646 -29.120649 8.44400256 -24.25 5.5 C-23.44530273 5.00959229 -22.64060547 4.51918457 -21.81152344 4.01391602 C-14.77437708 -0.22933937 -8.13064038 -4.05661501 0 0 Z " fill="#000000" transform="translate(295.6875,72.5625)"/>
</svg>
