<?xml version="1.0" encoding="UTF-8"?>
<svg version="1.1" xmlns="http://www.w3.org/2000/svg" width="200" height="201">
<path d="M0 0 C66 0 132 0 200 0 C200 66.33 200 132.66 200 201 C134 201 68 201 0 201 C0 134.67 0 68.34 0 0 Z " fill="#FEC601" transform="translate(0,0)"/>
<path d="M0 0 C66 0 132 0 200 0 C200 66.33 200 132.66 200 201 C134 201 68 201 0 201 C0 134.67 0 68.34 0 0 Z M81 18 C80.37593262 18.22042969 79.75186523 18.44085937 79.10888672 18.66796875 C58.62436697 26.0441521 38.0469742 38.57167879 27 58 C23.48888551 65.53375293 21.40298368 73.40183899 19.375 81.4375 C19.0759375 82.58798828 18.776875 83.73847656 18.46875 84.92382812 C12.71004156 107.41082014 10.72321976 130.2997813 23.0234375 151.10546875 C36.42240071 170.7272706 56.9423576 181.31913181 79.74049377 185.97767639 C86.88269753 187.31749028 93.95624034 187.48815485 101.20629883 187.44604492 C103.43339198 187.43751573 105.65792178 187.46647606 107.88476562 187.49804688 C127.46239304 187.5927569 150.23970301 181.99282342 165.3125 169.0078125 C181.56486832 152.20138617 182.45577767 127.48828544 182.2109375 105.5625 C181.73746133 81.90038245 174.6621232 58.76030685 158.2734375 41.18359375 C153.2401002 36.3491684 148.58794517 33.0257788 142.3125 30.0625 C140.89381056 29.37257373 139.47584398 28.68115914 138.05859375 27.98828125 C137.36878418 27.6526416 136.67897461 27.31700195 135.96826172 26.97119141 C130.33232131 24.19027216 124.734935 21.26841654 119.5625 17.6875 C109.79293312 11.25388279 91.2972593 14.28927593 81 18 Z " fill="#FEFEFD" transform="translate(0,0)"/>
<path d="M0 0 C6.32286149 5.17134698 9.49424469 10.92900419 10.60546875 19 C11.05225492 28.50436041 7.93243841 37.17694954 1.92578125 44.5234375 C-5.29009297 52.12260297 -12.90379673 55.36903025 -23.328125 55.7421875 C-32.22553307 55.49388774 -37.55953788 52.08130274 -44.0078125 46.1640625 C-50.15898207 39.65749202 -52.55184651 31.41867424 -52.3984375 22.59765625 C-50.5288835 12.86905118 -41.68544071 3.72210766 -33.765625 -1.6953125 C-22.73415712 -7.64315463 -10.72230488 -6.57271231 0 0 Z " fill="#FFFEFB" transform="translate(122.765625,74.6953125)"/>
<path d="M0 0 C1.32 0.66 2.64 1.32 4 2 C4.05906119 5.60409539 4.09394639 9.20806309 4.125 12.8125 C4.14175781 13.81732422 4.15851563 14.82214844 4.17578125 15.85742188 C4.27527333 31.32844026 0.33445195 46.41369636 -9 59 C-10.91362663 60.9267038 -12.7809519 62.41496564 -15 64 C-14.36542819 58.25096883 -12.3027994 53.26702379 -10.1875 47.9375 C-5.10462906 34.86515761 -1.12310372 22.71921411 -0.4375 8.625 C-0.39431641 7.79355469 -0.35113281 6.96210937 -0.30664062 6.10546875 C-0.20138195 4.07046772 -0.10026928 2.03525297 0 0 Z " fill="#FFFCF2" transform="translate(168,94)"/>
<path d="M0 0 C6.56746934 0.52539755 10.50645296 2.15684224 14.89453125 7.16015625 C19.745338 13.23601399 19.745338 13.23601399 21 17 C19.203125 16.8125 19.203125 16.8125 17 16 C15.359375 13.75 15.359375 13.75 13.75 11 C11.44772803 7.30718045 11.44772803 7.30718045 7.83984375 5.1875 C5.89957443 5.01847472 3.94761767 5 2 5 C1.34 4.34 0.68 3.68 0 3 C0 2.01 0 1.02 0 0 Z " fill="#FFF6D9" transform="translate(132,40)"/>
<path d="M0 0 C2.4499368 2.4499368 2.29666876 3.1904467 2.3125 6.5625 C2.20901707 11.65533845 1.38224473 16.45118701 -1 21 C-1.99 21.66 -2.98 22.32 -4 23 C-4.56993514 14.73594051 -2.48605403 7.8022142 0 0 Z " fill="#FFFAEA" transform="translate(36,89)"/>
<path d="M0 0 C0.66 0 1.32 0 2 0 C3.65 2.97 5.3 5.94 7 9 C3 8 3 8 1.25 6.1875 C0 4 0 4 0 0 Z " fill="#FFF9E7" transform="translate(146,48)"/>
<path d="M0 0 C1.9375 0.5 1.9375 0.5 4 2 C4.68790422 4.69658452 4.81946464 7.2017019 5 10 C2.08772731 6.71195019 0.50298788 4.40114397 0 0 Z " fill="#FFF2C6" transform="translate(164,81)"/>
<path d="M0 0 C1.9375 0.75 1.9375 0.75 4 2 C4.75 4.125 4.75 4.125 5 6 C3.68 6 2.36 6 1 6 C0.67 4.02 0.34 2.04 0 0 Z " fill="#FFF5D2" transform="translate(32,117)"/>
</svg>
